<svg width="23" height="22" viewBox="0 0 23 22" fill="none" xmlns="http://www.w3.org/2000/svg">
<mask id="path-1-inside-1_2299_1842" fill="white">
<path d="M7.5 20H3.5C3.23478 20 2.98043 19.8946 2.79289 19.7071C2.60536 19.5196 2.5 19.2652 2.5 19V15C2.5 14.7348 2.39464 14.4804 2.20711 14.2929C2.01957 14.1054 1.76522 14 1.5 14C1.23478 14 0.98043 14.1054 0.792893 14.2929C0.605357 14.4804 0.5 14.7348 0.5 15V19C0.5 19.7956 0.81607 20.5587 1.37868 21.1213C1.94129 21.6839 2.70435 22 3.5 22H7.5C7.76522 22 8.01957 21.8946 8.20711 21.7071C8.39464 21.5196 8.5 21.2652 8.5 21C8.5 20.7348 8.39464 20.4804 8.20711 20.2929C8.01957 20.1054 7.76522 20 7.5 20ZM21.5 14C21.2348 14 20.9804 14.1054 20.7929 14.2929C20.6054 14.4804 20.5 14.7348 20.5 15V19C20.5 19.2652 20.3946 19.5196 20.2071 19.7071C20.0196 19.8946 19.7652 20 19.5 20H15.5C15.2348 20 14.9804 20.1054 14.7929 20.2929C14.6054 20.4804 14.5 20.7348 14.5 21C14.5 21.2652 14.6054 21.5196 14.7929 21.7071C14.9804 21.8946 15.2348 22 15.5 22H19.5C20.2956 22 21.0587 21.6839 21.6213 21.1213C22.1839 20.5587 22.5 19.7956 22.5 19V15C22.5 14.7348 22.3946 14.4804 22.2071 14.2929C22.0196 14.1054 21.7652 14 21.5 14ZM19.5 0H15.5C15.2348 0 14.9804 0.105357 14.7929 0.292893C14.6054 0.48043 14.5 0.734784 14.5 1C14.5 1.26522 14.6054 1.51957 14.7929 1.70711C14.9804 1.89464 15.2348 2 15.5 2H19.5C19.7652 2 20.0196 2.10536 20.2071 2.29289C20.3946 2.48043 20.5 2.73478 20.5 3V7C20.5 7.26522 20.6054 7.51957 20.7929 7.70711C20.9804 7.89464 21.2348 8 21.5 8C21.7652 8 22.0196 7.89464 22.2071 7.70711C22.3946 7.51957 22.5 7.26522 22.5 7V3C22.5 2.20435 22.1839 1.44129 21.6213 0.87868C21.0587 0.31607 20.2956 0 19.5 0ZM1.5 8C1.76522 8 2.01957 7.89464 2.20711 7.70711C2.39464 7.51957 2.5 7.26522 2.5 7V3C2.5 2.73478 2.60536 2.48043 2.79289 2.29289C2.98043 2.10536 3.23478 2 3.5 2H7.5C7.76522 2 8.01957 1.89464 8.20711 1.70711C8.39464 1.51957 8.5 1.26522 8.5 1C8.5 0.734784 8.39464 0.48043 8.20711 0.292893C8.01957 0.105357 7.76522 0 7.5 0H3.5C2.70435 0 1.94129 0.31607 1.37868 0.87868C0.81607 1.44129 0.5 2.20435 0.5 3V7C0.5 7.26522 0.605357 7.51957 0.792893 7.70711C0.98043 7.89464 1.23478 8 1.5 8ZM9.5 4H5.5C5.23478 4 4.98043 4.10536 4.79289 4.29289C4.60536 4.48043 4.5 4.73478 4.5 5V9C4.5 9.26522 4.60536 9.51957 4.79289 9.70711C4.98043 9.89464 5.23478 10 5.5 10H9.5C9.76522 10 10.0196 9.89464 10.2071 9.70711C10.3946 9.51957 10.5 9.26522 10.5 9V5C10.5 4.73478 10.3946 4.48043 10.2071 4.29289C10.0196 4.10536 9.76522 4 9.5 4ZM8.5 8H6.5V6H8.5V8ZM13.5 10H17.5C17.7652 10 18.0196 9.89464 18.2071 9.70711C18.3946 9.51957 18.5 9.26522 18.5 9V5C18.5 4.73478 18.3946 4.48043 18.2071 4.29289C18.0196 4.10536 17.7652 4 17.5 4H13.5C13.2348 4 12.9804 4.10536 12.7929 4.29289C12.6054 4.48043 12.5 4.73478 12.5 5V9C12.5 9.26522 12.6054 9.51957 12.7929 9.70711C12.9804 9.89464 13.2348 10 13.5 10ZM14.5 6H16.5V8H14.5V6ZM9.5 12H5.5C5.23478 12 4.98043 12.1054 4.79289 12.2929C4.60536 12.4804 4.5 12.7348 4.5 13V17C4.5 17.2652 4.60536 17.5196 4.79289 17.7071C4.98043 17.8946 5.23478 18 5.5 18H9.5C9.76522 18 10.0196 17.8946 10.2071 17.7071C10.3946 17.5196 10.5 17.2652 10.5 17V13C10.5 12.7348 10.3946 12.4804 10.2071 12.2929C10.0196 12.1054 9.76522 12 9.5 12ZM8.5 16H6.5V14H8.5V16ZM13.5 15C13.7652 15 14.0196 14.8946 14.2071 14.7071C14.3946 14.5196 14.5 14.2652 14.5 14C14.7652 14 15.0196 13.8946 15.2071 13.7071C15.3946 13.5196 15.5 13.2652 15.5 13C15.5 12.7348 15.3946 12.4804 15.2071 12.2929C15.0196 12.1054 14.7652 12 14.5 12H13.5C13.2348 12 12.9804 12.1054 12.7929 12.2929C12.6054 12.4804 12.5 12.7348 12.5 13V14C12.5 14.2652 12.6054 14.5196 12.7929 14.7071C12.9804 14.8946 13.2348 15 13.5 15ZM17.5 12C17.2348 12 16.9804 12.1054 16.7929 12.2929C16.6054 12.4804 16.5 12.7348 16.5 13V16C16.2348 16 15.9804 16.1054 15.7929 16.2929C15.6054 16.4804 15.5 16.7348 15.5 17C15.5 17.2652 15.6054 17.5196 15.7929 17.7071C15.9804 17.8946 16.2348 18 16.5 18H17.5C17.7652 18 18.0196 17.8946 18.2071 17.7071C18.3946 17.5196 18.5 17.2652 18.5 17V13C18.5 12.7348 18.3946 12.4804 18.2071 12.2929C18.0196 12.1054 17.7652 12 17.5 12ZM13.5 16C13.3022 16 13.1089 16.0586 12.9444 16.1685C12.78 16.2784 12.6518 16.4346 12.5761 16.6173C12.5004 16.8 12.4806 17.0011 12.5192 17.1951C12.5578 17.3891 12.653 17.5673 12.7929 17.7071C12.9327 17.847 13.1109 17.9422 13.3049 17.9808C13.4989 18.0194 13.7 17.9996 13.8827 17.9239C14.0654 17.8482 14.2216 17.72 14.3315 17.5556C14.4414 17.3911 14.5 17.1978 14.5 17C14.5 16.7348 14.3946 16.4804 14.2071 16.2929C14.0196 16.1054 13.7652 16 13.5 16Z"/>
</mask>
<path d="M7.5 20H3.5C3.23478 20 2.98043 19.8946 2.79289 19.7071C2.60536 19.5196 2.5 19.2652 2.5 19V15C2.5 14.7348 2.39464 14.4804 2.20711 14.2929C2.01957 14.1054 1.76522 14 1.5 14C1.23478 14 0.98043 14.1054 0.792893 14.2929C0.605357 14.4804 0.5 14.7348 0.5 15V19C0.5 19.7956 0.81607 20.5587 1.37868 21.1213C1.94129 21.6839 2.70435 22 3.5 22H7.5C7.76522 22 8.01957 21.8946 8.20711 21.7071C8.39464 21.5196 8.5 21.2652 8.5 21C8.5 20.7348 8.39464 20.4804 8.20711 20.2929C8.01957 20.1054 7.76522 20 7.5 20ZM21.5 14C21.2348 14 20.9804 14.1054 20.7929 14.2929C20.6054 14.4804 20.5 14.7348 20.5 15V19C20.5 19.2652 20.3946 19.5196 20.2071 19.7071C20.0196 19.8946 19.7652 20 19.5 20H15.5C15.2348 20 14.9804 20.1054 14.7929 20.2929C14.6054 20.4804 14.5 20.7348 14.5 21C14.5 21.2652 14.6054 21.5196 14.7929 21.7071C14.9804 21.8946 15.2348 22 15.5 22H19.5C20.2956 22 21.0587 21.6839 21.6213 21.1213C22.1839 20.5587 22.5 19.7956 22.5 19V15C22.5 14.7348 22.3946 14.4804 22.2071 14.2929C22.0196 14.1054 21.7652 14 21.5 14ZM19.5 0H15.5C15.2348 0 14.9804 0.105357 14.7929 0.292893C14.6054 0.48043 14.5 0.734784 14.5 1C14.5 1.26522 14.6054 1.51957 14.7929 1.70711C14.9804 1.89464 15.2348 2 15.5 2H19.5C19.7652 2 20.0196 2.10536 20.2071 2.29289C20.3946 2.48043 20.5 2.73478 20.5 3V7C20.5 7.26522 20.6054 7.51957 20.7929 7.70711C20.9804 7.89464 21.2348 8 21.5 8C21.7652 8 22.0196 7.89464 22.2071 7.70711C22.3946 7.51957 22.5 7.26522 22.5 7V3C22.5 2.20435 22.1839 1.44129 21.6213 0.87868C21.0587 0.31607 20.2956 0 19.5 0ZM1.5 8C1.76522 8 2.01957 7.89464 2.20711 7.70711C2.39464 7.51957 2.5 7.26522 2.5 7V3C2.5 2.73478 2.60536 2.48043 2.79289 2.29289C2.98043 2.10536 3.23478 2 3.5 2H7.5C7.76522 2 8.01957 1.89464 8.20711 1.70711C8.39464 1.51957 8.5 1.26522 8.5 1C8.5 0.734784 8.39464 0.48043 8.20711 0.292893C8.01957 0.105357 7.76522 0 7.5 0H3.5C2.70435 0 1.94129 0.31607 1.37868 0.87868C0.81607 1.44129 0.5 2.20435 0.5 3V7C0.5 7.26522 0.605357 7.51957 0.792893 7.70711C0.98043 7.89464 1.23478 8 1.5 8ZM9.5 4H5.5C5.23478 4 4.98043 4.10536 4.79289 4.29289C4.60536 4.48043 4.5 4.73478 4.5 5V9C4.5 9.26522 4.60536 9.51957 4.79289 9.70711C4.98043 9.89464 5.23478 10 5.5 10H9.5C9.76522 10 10.0196 9.89464 10.2071 9.70711C10.3946 9.51957 10.5 9.26522 10.5 9V5C10.5 4.73478 10.3946 4.48043 10.2071 4.29289C10.0196 4.10536 9.76522 4 9.5 4ZM8.5 8H6.5V6H8.5V8ZM13.5 10H17.5C17.7652 10 18.0196 9.89464 18.2071 9.70711C18.3946 9.51957 18.5 9.26522 18.5 9V5C18.5 4.73478 18.3946 4.48043 18.2071 4.29289C18.0196 4.10536 17.7652 4 17.5 4H13.5C13.2348 4 12.9804 4.10536 12.7929 4.29289C12.6054 4.48043 12.5 4.73478 12.5 5V9C12.5 9.26522 12.6054 9.51957 12.7929 9.70711C12.9804 9.89464 13.2348 10 13.5 10ZM14.5 6H16.5V8H14.5V6ZM9.5 12H5.5C5.23478 12 4.98043 12.1054 4.79289 12.2929C4.60536 12.4804 4.5 12.7348 4.5 13V17C4.5 17.2652 4.60536 17.5196 4.79289 17.7071C4.98043 17.8946 5.23478 18 5.5 18H9.5C9.76522 18 10.0196 17.8946 10.2071 17.7071C10.3946 17.5196 10.5 17.2652 10.5 17V13C10.5 12.7348 10.3946 12.4804 10.2071 12.2929C10.0196 12.1054 9.76522 12 9.5 12ZM8.5 16H6.5V14H8.5V16ZM13.5 15C13.7652 15 14.0196 14.8946 14.2071 14.7071C14.3946 14.5196 14.5 14.2652 14.5 14C14.7652 14 15.0196 13.8946 15.2071 13.7071C15.3946 13.5196 15.5 13.2652 15.5 13C15.5 12.7348 15.3946 12.4804 15.2071 12.2929C15.0196 12.1054 14.7652 12 14.5 12H13.5C13.2348 12 12.9804 12.1054 12.7929 12.2929C12.6054 12.4804 12.5 12.7348 12.5 13V14C12.5 14.2652 12.6054 14.5196 12.7929 14.7071C12.9804 14.8946 13.2348 15 13.5 15ZM17.5 12C17.2348 12 16.9804 12.1054 16.7929 12.2929C16.6054 12.4804 16.5 12.7348 16.5 13V16C16.2348 16 15.9804 16.1054 15.7929 16.2929C15.6054 16.4804 15.5 16.7348 15.5 17C15.5 17.2652 15.6054 17.5196 15.7929 17.7071C15.9804 17.8946 16.2348 18 16.5 18H17.5C17.7652 18 18.0196 17.8946 18.2071 17.7071C18.3946 17.5196 18.5 17.2652 18.5 17V13C18.5 12.7348 18.3946 12.4804 18.2071 12.2929C18.0196 12.1054 17.7652 12 17.5 12ZM13.5 16C13.3022 16 13.1089 16.0586 12.9444 16.1685C12.78 16.2784 12.6518 16.4346 12.5761 16.6173C12.5004 16.8 12.4806 17.0011 12.5192 17.1951C12.5578 17.3891 12.653 17.5673 12.7929 17.7071C12.9327 17.847 13.1109 17.9422 13.3049 17.9808C13.4989 18.0194 13.7 17.9996 13.8827 17.9239C14.0654 17.8482 14.2216 17.72 14.3315 17.5556C14.4414 17.3911 14.5 17.1978 14.5 17C14.5 16.7348 14.3946 16.4804 14.2071 16.2929C14.0196 16.1054 13.7652 16 13.5 16Z" fill="black" stroke="#3A4145" stroke-width="2" mask="url(#path-1-inside-1_2299_1842)"/>
</svg>
