<svg xmlns="http://www.w3.org/2000/svg" xmlns:xlink="http://www.w3.org/1999/xlink" width="334" height="114" viewBox="0 0 334 114"><defs><style>.a,.e,.k{fill:#fff;}.a{opacity:0.56;}.b,.p{fill:none;}.c{clip-path:url(#a);}.d{fill:url(#b);}.e{opacity:0.5;}.f{clip-path:url(#c);}.g{fill:#ffd1e9;}.h{fill:url(#d);}.i{fill:#342538;}.j{fill:#574fa2;}.j,.k,.l{fill-rule:evenodd;}.l{fill:#fe97c6;}.m{fill:#1b1b3d;}.n{font-size:9px;}.n,.o{font-family:Subjectivity-Bold, Subjectivity;font-weight:700;}.o{font-size:21px;}.p{opacity:0;}</style><clipPath id="a"><rect class="a" width="334" height="114" rx="15"/></clipPath><linearGradient id="b" x1="0.5" y1="1" x2="0.5" gradientUnits="objectBoundingBox"><stop offset="0" stop-color="#fff"/><stop offset="0.473" stop-color="#eae8f7"/><stop offset="0.747" stop-color="#c5c0e9"/><stop offset="1" stop-color="#7f76cf"/></linearGradient><clipPath id="c"><rect class="b" width="340.191" height="340.19"/></clipPath><linearGradient id="d" x1="0.5" y1="1" x2="0.5" gradientUnits="objectBoundingBox"><stop offset="0" stop-color="#fff"/><stop offset="0.183" stop-color="#fff3f9"/><stop offset="0.602" stop-color="#fe97c6"/></linearGradient></defs><g class="c"><g transform="translate(0 -174.159)"><rect class="d" width="340.191" height="340.19" transform="translate(0 148.848)"/><ellipse class="e" cx="41.792" cy="41.792" rx="41.792" ry="41.792" transform="translate(160.015 177.096)"/><g transform="translate(0 0)"><g class="f"><path class="g" d="M343.259,122.593s8.093.416,11.413-2.075,14.524-9.751,18.673-9.959,10.583,0,15.977-2.489,25.935-9.337,28.632-9.751,15.561-3.735,24.069,2.7A137.534,137.534,0,0,0,458,111.458s4.149,3.6,8.853,3.872,18.812.139,18.812.139a16.867,16.867,0,0,1,8.3,4.563c4.288,4.011,14.247,13.28,14.247,13.28a13.157,13.157,0,0,0,8.16,2.489c5.257,0,13.141-8.714,17.566-8.576a107.254,107.254,0,0,0,11.2-.553,10.037,10.037,0,0,1,8.16,4.151c3.182,4.425,8.023,10.789,8.023,10.789s4.427,5.809,9.959,5.809,12.311.692,12.311.692,4.98,5.394,10.512,5.671,11.9-13.278,18.812-14.108,7.47,5.808,14.94,6.085,19.365-11.066,32.643-11.9,25.452,1.106,29.048.553S715,117.267,729.94,118.65s6.64,220.407,6.64,220.407L343.259,310.365Z" transform="translate(-370.974 78.432)"/><path class="h" d="M733.75,156.812c-3.946-3.383-11.277-6.2-15.225-9.022-7.894-4.512-10.713-13.534-20.864-15.79-5.639-1.128-10.713,4.512-14.661,2.821-.564,0-10.149-11.279-11.843-12.97-2.819-2.819-10.149-9.586-13.532-10.713a21.923,21.923,0,0,0-11.59-1.291c-2.933.3-5.421-2-7.894-1.046-4.186,2.378-2.236,11.478-3.9,13.793-7.419,2.949-20.812,24.663-35.825,16.74-12.97-1.693-14.661,11.841-25.938,16.916-10.151,4.512-5.639,1.128-13.534-.564-4.512-.564-14.1-4.512-16.354-4.512-10.149-.564-4.51-2.255-14.661,4.512-5.639,4.512-10.149,6.767-15.225,10.149-8.458,5.639-19.737,14.1-32.143,16.918-12.4,2.255-23.119-4.512-36.089-6.767,1.127-12.406-36.653-21.428-47.366-18.609-6.2-11.277-38.346-35.526-53.007-28.195l-3.5,206.952,393.153-.109Z" transform="translate(-373.002 63.875)"/><path class="i" d="M571.784,39.761s-6.885,87.309-15.4,90.12a151.611,151.611,0,0,0-19.124,8.441l-23.643,22.5v12.658l10.343-11.252s10.755-21.1,18.74-19.691,16.409-9.078,20.16-13.3,8.922-72.674,8.922-72.674Z" transform="translate(-241.202 -91.69)"/><g transform="translate(41.264 189.867)"><path class="j" d="M216.536,119.3h-1.854v-8.8h-.414v-.765h-.357v-.748h-2.937V81.41h-.43v-5.1H209.46V74.161h.477v-3.7h-5.463v-.542H202.83v.542H201.4v3.7h.565v2.152h-1.275v5.1h-1.762v29.083h-1.482v-4.914h-.094v-.165h-.124v-.276h-.69v-1.384h-.343v-2.6h-.343v4.424h-.223v4.914h-.41v8.8h-1.853v21.056h-2.132V99.565h-.5v-.893h-.332v-.6h-4.152V97.8h-1.043v.281h-.658V96.654h-5.972V93.246H178.1v3.408h-2.216v1.423h-.96v.6h-.464v.893H173.9v24.548h-1.351v21.207h-1.019V135.235h-.471v-.312h-5.073V113.4l-1.276-.5V83.239h-4.265V82.078h-1.559V81.3h-2.167V71.27h-.885V82.078h-4.612v.914h-7.288v.248h-.346l-3.8,2.446,0-1.071-3.48.356v2.954l-6.28,4.045v42.313h-2.218v-8.288h-.663v-.419h-.32v-.5h-3.2v.5h-.5v.419h-.541v-4.937h-3.332v-4.043H118.19l-.917-6.966v-9.962h-1.045v10.042l-2.18.165,0-1.015-3.479.356v.923l-8.2.621v-8.528h-1.045v8.607l-1.42,9.8h-4.33v24.827H93.713v-5.978H92.269v-4.235H87.487v-2.117l-1.726-1.176v4.861l-5.881,1.8v.863H77.822v19.229h-.4V152.3h-.933v-1.659H75.5v-.766H73.841v-1.148h-.957v1.148H67.141v.766h-.893v.51L65.2,152.3h-.559v7.817H63.279v2.35h-1.1v7.1H319.845v-8.419h-2.88V149.586l-1.2.068-3.566-2.333h-5.176v-1.873h-1.135v7.1h-2.048V141.319h-2.313v-2.147h-1.651v-.822h-1.817v-1.982h-.825v1.982h-1.818v.822H293.1v7.719h-1.2V107.5l-1.778,1.251V88.492h-.887v14.365l-.366.061V97.726h-.819v5.328l-3.078.514v8.813l-13.057,9.188,1.424,23.085h-1.379v-10.4H269.4v-8.688l-1.086-5.928h-1.763v-7.648h-2.208v-2.635H263.7v2.635h-.57v22.264l-2.564,1.1v9.294h-.37V95.012h-1.558V92.754h-2.2l-2.211-8.468h-.455v-1.18h-1.263V81.479h-.685l.323-1.732H249.6V70.01h-.554v9.736h-2.813l.323,1.732h-.424v1.627h-1.264v1.18h-.68l-1.922,8.468H240.3v2.258h-1.559v33.731l-.573-.453V125.4l-1.787-1.8h-.835V121.57l-.382-.111V109.874l.729-.723v-.743h-1.686V104.4h-.469v-.357l-1.787-1.8h-.609v-1.723l-2.106-1.167h-1.7v-3.6h-.3v3.6h-1.9V104.4h-.609v5.282h-.869v20.911h-.242V114.606h-1.389v-8.642l-1.669-2.562H219.5V100.2h-.25V103.4H219v-2.017h-.25V103.4h-.708V114.25h-1.068v16.341h-.438V119.3Z" transform="translate(-62.181 -69.923)"/><g transform="translate(217.014 50.194)"><path class="k" d="M765.728,334.524h.967v-1.769h-.967v1.769Z" transform="translate(-765.728 -301.876)"/><path class="k" d="M765.728,296.986h.967v-1.769h-.967v1.769Z" transform="translate(-765.728 -275.917)"/><path class="k" d="M765.728,322.01h.967v-1.769h-.967v1.769Z" transform="translate(-765.728 -293.222)"/><path class="k" d="M765.728,284.471h.967V282.7h-.967v1.77Z" transform="translate(-765.728 -267.262)"/><path class="k" d="M765.728,246.929h.967v-1.77h-.967v1.77Z" transform="translate(-765.728 -241.3)"/><path class="k" d="M765.728,259.444h.967v-1.769h-.967v1.769Z" transform="translate(-765.728 -249.955)"/><path class="k" d="M775.952,347.038h.967v-1.769h-.967v1.769Z" transform="translate(-772.799 -310.53)"/><path class="k" d="M775.952,309.5h.967v-1.769h-.967V309.5Z" transform="translate(-772.799 -284.568)"/><path class="k" d="M775.952,296.986h.967v-1.769h-.967v1.769Z" transform="translate(-772.799 -275.917)"/><path class="k" d="M775.952,322.01h.967v-1.769h-.967v1.769Z" transform="translate(-772.799 -293.222)"/><path class="k" d="M775.952,271.958h.967v-1.769h-.967v1.769Z" transform="translate(-772.799 -258.609)"/><path class="k" d="M775.952,234.417h.967v-1.769h-.967v1.769Z" transform="translate(-772.799 -232.647)"/><path class="k" d="M775.952,259.444h.967v-1.769h-.967v1.769Z" transform="translate(-772.799 -249.955)"/><path class="k" d="M786.685,334.524h.969v-1.769h-.969v1.769Z" transform="translate(-780.221 -301.876)"/><path class="k" d="M786.685,309.5h.969v-1.769h-.969V309.5Z" transform="translate(-780.221 -284.568)"/><path class="k" d="M786.685,296.986h.969v-1.769h-.969v1.769Z" transform="translate(-780.221 -275.917)"/><path class="k" d="M786.685,322.01h.969v-1.769h-.969v1.769Z" transform="translate(-780.221 -293.222)"/><path class="k" d="M786.685,284.471h.969V282.7h-.969v1.77Z" transform="translate(-780.221 -267.262)"/><path class="k" d="M786.685,246.929h.969v-1.77h-.969v1.77Z" transform="translate(-780.221 -241.3)"/><path class="k" d="M786.685,234.417h.969v-1.769h-.969v1.769Z" transform="translate(-780.221 -232.647)"/><path class="k" d="M786.685,259.444h.969v-1.769h-.969v1.769Z" transform="translate(-780.221 -249.955)"/></g><g transform="translate(246.433 80.311)"><path class="k" d="M861.1,330.285h.6v1.1h-.6v-1.1Z" transform="translate(-861.104 -330.285)"/><path class="k" d="M861.1,338.076h.6v1.1h-.6v-1.1Z" transform="translate(-861.104 -335.673)"/><path class="k" d="M861.1,353.659h.6v1.1h-.6v-1.1Z" transform="translate(-861.104 -346.449)"/><path class="k" d="M867.467,330.285h.6v1.1h-.6v-1.1Z" transform="translate(-865.504 -330.285)"/><path class="k" d="M867.467,345.867h.6v1.1h-.6v-1.1Z" transform="translate(-865.504 -341.061)"/><path class="k" d="M867.467,353.659h.6v1.1h-.6v-1.1Z" transform="translate(-865.504 -346.449)"/></g><g transform="translate(4.633 83.894)"><path class="l" d="M77.2,355.368h.52v.951H77.2v-.951Z" transform="translate(-77.201 -351.214)"/><path class="l" d="M82.7,341.9h.52v.952H82.7V341.9Z" transform="translate(-81.004 -341.901)"/><path class="l" d="M82.7,348.633h.52v.952H82.7v-.952Z" transform="translate(-81.004 -346.556)"/><path class="l" d="M88.476,341.9H89v.952h-.521V341.9Z" transform="translate(-84.998 -341.901)"/><path class="l" d="M88.476,348.633H89v.952h-.521v-.952Z" transform="translate(-84.998 -346.556)"/><path class="l" d="M88.476,355.368H89v.951h-.521v-.951Z" transform="translate(-84.998 -351.214)"/><path class="l" d="M82.7,361.882h.52v.951H82.7v-.951Z" transform="translate(-81.004 -355.719)"/><path class="l" d="M88.476,361.882H89v.951h-.521v-.951Z" transform="translate(-84.998 -355.719)"/><path class="l" d="M88.476,368.611H89v.952h-.521v-.952Z" transform="translate(-84.998 -360.372)"/></g><g transform="translate(164.503 36.825)"><path class="l" d="M595.492,198.753h.73v1.335h-.73v-1.335Z" transform="translate(-595.492 -195.839)"/><path class="l" d="M595.492,217.642h.73v1.336h-.73v-1.336Z" transform="translate(-595.492 -208.902)"/><path class="l" d="M595.492,208.2h.73v1.336h-.73V208.2Z" transform="translate(-595.492 -202.372)"/><path class="l" d="M595.492,236.535h.73v1.336h-.73v-1.336Z" transform="translate(-595.492 -221.967)"/><path class="l" d="M595.492,264.872h.73v1.336h-.73v-1.336Z" transform="translate(-595.492 -241.564)"/><path class="l" d="M595.492,255.426h.73v1.336h-.73v-1.336Z" transform="translate(-595.492 -235.032)"/><path class="l" d="M602.859,189.308h.73v1.335h-.73v-1.335Z" transform="translate(-600.587 -189.308)"/><path class="l" d="M602.859,227.088h.73v1.336h-.73v-1.336Z" transform="translate(-600.587 -215.435)"/><path class="l" d="M602.859,208.2h.73v1.336h-.73V208.2Z" transform="translate(-600.587 -202.372)"/><path class="l" d="M602.859,236.535h.73v1.336h-.73v-1.336Z" transform="translate(-600.587 -221.967)"/><path class="l" d="M602.859,274.315h.73v1.336h-.73v-1.336Z" transform="translate(-600.587 -248.094)"/><path class="l" d="M610.924,189.308h.73v1.335h-.73v-1.335Z" transform="translate(-606.164 -189.308)"/><path class="l" d="M610.924,198.753h.73v1.335h-.73v-1.335Z" transform="translate(-606.164 -195.839)"/><path class="l" d="M610.924,227.088h.73v1.336h-.73v-1.336Z" transform="translate(-606.164 -215.435)"/><path class="l" d="M610.924,208.2h.73v1.336h-.73V208.2Z" transform="translate(-606.164 -202.372)"/><path class="l" d="M610.924,236.535h.73v1.336h-.73v-1.336Z" transform="translate(-606.164 -221.967)"/><path class="l" d="M610.924,264.872h.73v1.336h-.73v-1.336Z" transform="translate(-606.164 -241.564)"/><path class="l" d="M610.924,255.426h.73v1.336h-.73v-1.336Z" transform="translate(-606.164 -235.032)"/><path class="l" d="M595.492,284.017h.73v1.335h-.73v-1.335Z" transform="translate(-595.492 -254.803)"/><path class="l" d="M595.492,302.906h.73v1.336h-.73v-1.336Z" transform="translate(-595.492 -267.866)"/><path class="l" d="M595.492,293.465h.73V294.8h-.73v-1.336Z" transform="translate(-595.492 -261.337)"/><path class="l" d="M602.859,293.465h.73V294.8h-.73v-1.336Z" transform="translate(-600.587 -261.337)"/><path class="l" d="M610.924,274.574h.73v1.334h-.73v-1.334Z" transform="translate(-606.164 -248.273)"/><path class="l" d="M610.924,284.017h.73v1.335h-.73v-1.335Z" transform="translate(-606.164 -254.803)"/><path class="l" d="M610.924,312.352h.73v1.336h-.73v-1.336Z" transform="translate(-606.164 -274.398)"/><path class="l" d="M610.924,293.465h.73V294.8h-.73v-1.336Z" transform="translate(-606.164 -261.337)"/></g><g transform="translate(233.571 73.071)"><path class="k" d="M819.406,315.446h.668v1.22h-.668v-1.22Z" transform="translate(-819.406 -312.783)"/><path class="k" d="M819.406,324.074h.668v1.22h-.668v-1.22Z" transform="translate(-819.406 -318.75)"/><path class="k" d="M819.406,341.33h.668v1.221h-.668V341.33Z" transform="translate(-819.406 -330.684)"/><path class="k" d="M826.454,306.814h.667v1.221h-.667v-1.221Z" transform="translate(-824.28 -306.814)"/><path class="k" d="M826.454,315.446h.667v1.22h-.667v-1.22Z" transform="translate(-824.28 -312.783)"/><path class="k" d="M826.454,332.7h.667v1.22h-.667V332.7Z" transform="translate(-824.28 -324.717)"/><path class="k" d="M833.858,306.814h.668v1.221h-.668v-1.221Z" transform="translate(-829.4 -306.814)"/><path class="k" d="M833.858,315.446h.668v1.22h-.668v-1.22Z" transform="translate(-829.4 -312.783)"/><path class="k" d="M833.858,324.074h.668v1.22h-.668v-1.22Z" transform="translate(-829.4 -318.75)"/></g><g transform="translate(61.184 60.083)"><path class="l" d="M267.939,290.492h.668v1.22h-.668v-1.22Z" transform="translate(-265.655 -282.539)"/><path class="l" d="M267.939,299.121h.668v1.22h-.668v-1.22Z" transform="translate(-265.655 -288.506)"/><path class="l" d="M267.939,316.377h.668V317.6h-.668v-1.221Z" transform="translate(-265.655 -300.44)"/><path class="l" d="M260.535,264.71h.667v1.221h-.667V264.71Z" transform="translate(-260.535 -264.71)"/><path class="l" d="M260.535,273.341h.667v1.22h-.667v-1.22Z" transform="translate(-260.535 -270.679)"/><path class="l" d="M260.535,290.6h.667v1.22h-.667V290.6Z" transform="translate(-260.535 -282.612)"/><path class="l" d="M267.939,264.71h.668v1.221h-.668V264.71Z" transform="translate(-265.655 -264.71)"/><path class="l" d="M267.939,273.341h.668v1.22h-.668v-1.22Z" transform="translate(-265.655 -270.679)"/><path class="l" d="M267.939,281.97h.668v1.22h-.668v-1.22Z" transform="translate(-265.655 -276.646)"/></g><g transform="translate(178.444 17.67)"><path class="l" d="M649.057,311.429h.7v1.495h-.7v-1.495Z" transform="translate(-646.475 -254.605)"/><path class="l" d="M649.057,320.691h.7v1.495h-.7v-1.495Z" transform="translate(-646.475 -261.01)"/><path class="l" d="M655.9,320.691h.7v1.495h-.7v-1.495Z" transform="translate(-651.206 -261.01)"/><path class="l" d="M649.057,291h.749v1.372h-.749V291Z" transform="translate(-646.475 -240.478)"/><path class="l" d="M649.057,281.3h.749v1.372h-.749V281.3Z" transform="translate(-646.475 -233.767)"/><path class="l" d="M656.984,271.593h.75v1.372h-.75v-1.372Z" transform="translate(-651.958 -227.057)"/><path class="l" d="M656.984,281.3h.75v1.372h-.75V281.3Z" transform="translate(-651.958 -233.767)"/><path class="l" d="M649.025,234h.75v1.372h-.75V234Z" transform="translate(-646.454 -201.061)"/><path class="l" d="M649.025,243.706h.75v1.373h-.75v-1.373Z" transform="translate(-646.454 -207.772)"/><path class="l" d="M649.057,262.734h.749v1.372h-.749v-1.372Z" transform="translate(-646.475 -220.93)"/><path class="l" d="M649.057,253.027h.749V254.4h-.749v-1.373Z" transform="translate(-646.475 -214.217)"/><path class="l" d="M680.229,263.118h.752v1.372h-.752v-1.372Z" transform="translate(-668.032 -221.195)"/><path class="l" d="M680.229,253.41h.752v1.373h-.752V253.41Z" transform="translate(-668.032 -214.482)"/><path class="l" d="M688.157,243.706h.75v1.372h-.75v-1.372Z" transform="translate(-673.515 -207.772)"/><path class="l" d="M688.157,253.41h.75v1.373h-.75V253.41Z" transform="translate(-673.515 -214.482)"/><path class="l" d="M680.2,206.115h.75v1.373h-.75v-1.373Z" transform="translate(-668.011 -181.776)"/><path class="l" d="M680.2,196.412h.75v1.373h-.75v-1.373Z" transform="translate(-668.011 -175.065)"/><path class="l" d="M680.229,234.847h.752v1.373h-.752v-1.373Z" transform="translate(-668.032 -201.645)"/><path class="l" d="M680.229,225.143h.752v1.372h-.752v-1.372Z" transform="translate(-668.032 -194.935)"/><path class="l" d="M680.229,282.142h.7v1.495h-.7v-1.495Z" transform="translate(-668.032 -234.352)"/><path class="l" d="M680.229,291.408h.7V292.9h-.7v-1.495Z" transform="translate(-668.032 -240.759)"/><path class="l" d="M680.229,311.429h.7v1.495h-.7v-1.495Z" transform="translate(-668.032 -254.605)"/><path class="l" d="M687.07,291.408h.7V292.9h-.7v-1.495Z" transform="translate(-672.763 -240.759)"/><path class="l" d="M687.07,300.673h.7v1.495h-.7v-1.495Z" transform="translate(-672.763 -247.167)"/><path class="l" d="M672.094,311.429h.7v1.495h-.7v-1.495Z" transform="translate(-662.406 -254.605)"/><path class="l" d="M672.094,291.846h.752v1.373h-.752v-1.373Z" transform="translate(-662.406 -241.062)"/><path class="l" d="M672.062,234.847h.75v1.373h-.75v-1.373Z" transform="translate(-662.385 -201.645)"/><path class="l" d="M672.062,225.143h.75v1.372h-.75v-1.372Z" transform="translate(-662.385 -194.935)"/><path class="l" d="M672.094,263.579h.752v1.373h-.752v-1.373Z" transform="translate(-662.406 -221.515)"/><path class="l" d="M656.582,216.164h.752v1.373h-.752v-1.373Z" transform="translate(-651.679 -188.725)"/><path class="l" d="M664.51,216.164h.75v1.373h-.75v-1.373Z" transform="translate(-657.162 -188.725)"/><path class="l" d="M656.582,197.6h.752v1.373h-.752V197.6Z" transform="translate(-651.679 -175.888)"/><path class="l" d="M648.415,197.6h.75v1.373h-.75V197.6Z" transform="translate(-646.032 -175.888)"/><path class="l" d="M672.094,253.875h.752v1.372h-.752v-1.372Z" transform="translate(-662.406 -214.804)"/><path class="l" d="M665.135,300.873h.749v1.372h-.749v-1.372Z" transform="translate(-657.595 -247.305)"/><path class="l" d="M640.688,243.151h.75v1.372h-.75v-1.372Z" transform="translate(-640.688 -207.388)"/><path class="l" d="M664.379,127.208h.7V128.7h-.7v-1.495Z" transform="translate(-657.071 -127.208)"/><path class="l" d="M664.379,136.472h.7v1.495h-.7v-1.495Z" transform="translate(-657.071 -133.615)"/><path class="l" d="M664.379,155h.7V156.5h-.7V155Z" transform="translate(-657.071 -146.429)"/><path class="l" d="M671.221,136.472h.7v1.495h-.7v-1.495Z" transform="translate(-661.803 -133.615)"/><path class="l" d="M671.221,145.738h.7v1.495h-.7v-1.495Z" transform="translate(-661.803 -140.022)"/><path class="l" d="M671.221,164.267h.7v1.495h-.7v-1.495Z" transform="translate(-661.803 -152.836)"/><path class="l" d="M672.307,224.938h.75v1.372h-.75v-1.372Z" transform="translate(-662.554 -194.793)"/><path class="l" d="M664.349,187.347h.75v1.372h-.75v-1.372Z" transform="translate(-657.051 -168.797)"/><path class="l" d="M664.349,177.644h.75v1.372h-.75v-1.372Z" transform="translate(-657.051 -162.087)"/></g><g transform="translate(69.381 23.226)"><path class="l" d="M295.48,259.046h.7v1.495h-.7v-1.495Z" transform="translate(-292.898 -223.935)"/><path class="l" d="M295.48,268.308h.7V269.8h-.7v-1.495Z" transform="translate(-292.898 -230.34)"/><path class="l" d="M302.32,268.308h.7V269.8h-.7v-1.495Z" transform="translate(-297.629 -230.34)"/><path class="l" d="M295.48,238.618h.749v1.372h-.749v-1.372Z" transform="translate(-292.898 -209.808)"/><path class="l" d="M295.48,228.913h.749v1.372h-.749v-1.372Z" transform="translate(-292.898 -203.097)"/><path class="l" d="M303.408,219.209h.75v1.372h-.75v-1.372Z" transform="translate(-298.381 -196.386)"/><path class="l" d="M303.408,228.913h.75v1.372h-.75v-1.372Z" transform="translate(-298.381 -203.097)"/><path class="l" d="M295.448,181.618h.75v1.372h-.75v-1.372Z" transform="translate(-292.877 -170.391)"/><path class="l" d="M295.448,191.322h.75V192.7h-.75v-1.373Z" transform="translate(-292.877 -177.101)"/><path class="l" d="M295.48,210.35h.749v1.372h-.749V210.35Z" transform="translate(-292.898 -190.26)"/><path class="l" d="M295.48,200.643h.749v1.373h-.749v-1.373Z" transform="translate(-292.898 -183.547)"/><path class="l" d="M303,163.781h.752v1.373H303v-1.373Z" transform="translate(-298.102 -158.055)"/><path class="l" d="M310.933,163.781h.75v1.373h-.75v-1.373Z" transform="translate(-303.585 -158.055)"/><path class="l" d="M303,145.219h.752v1.373H303v-1.373Z" transform="translate(-298.102 -145.219)"/><path class="l" d="M294.838,145.219h.75v1.373h-.75v-1.373Z" transform="translate(-292.455 -145.219)"/><path class="l" d="M311.559,248.49h.749v1.372h-.749V248.49Z" transform="translate(-304.018 -216.635)"/><path class="l" d="M287.112,190.767h.75v1.372h-.75v-1.372Z" transform="translate(-287.112 -176.717)"/></g><g transform="translate(202.29 52.909)"><path class="l" d="M717.994,264.518h.455v.834h-.455v-.834Z" transform="translate(-717.994 -257.402)"/><path class="l" d="M717.994,258.624h.455v.834h-.455v-.834Z" transform="translate(-717.994 -253.326)"/><path class="l" d="M722.809,252.725h.455v.834h-.455v-.834Z" transform="translate(-721.323 -249.247)"/><path class="l" d="M722.809,258.624h.455v.834h-.455v-.834Z" transform="translate(-721.323 -253.326)"/><path class="l" d="M727.866,264.518h.456v.834h-.456v-.834Z" transform="translate(-724.821 -257.402)"/><path class="l" d="M727.866,270.412h.456v.834h-.456v-.834Z" transform="translate(-724.821 -261.478)"/><path class="l" d="M727.866,258.624h.456v.834h-.456v-.834Z" transform="translate(-724.821 -253.326)"/><path class="l" d="M717.994,247.348h.455v.834h-.455v-.834Z" transform="translate(-717.994 -245.528)"/><path class="l" d="M717.994,241.449h.455v.834h-.455v-.834Z" transform="translate(-717.994 -241.449)"/><path class="l" d="M733.173,293.128h.455v.834h-.455v-.834Z" transform="translate(-728.491 -277.188)"/><path class="l" d="M733.173,299.023h.455v.834h-.455v-.834Z" transform="translate(-728.491 -281.264)"/><path class="l" d="M733.173,287.23h.455v.834h-.455v-.834Z" transform="translate(-728.491 -273.109)"/></g><g transform="translate(156.634 39.158)"><path class="l" d="M575.287,219.941h.455v.834h-.455v-.834Z" transform="translate(-573.65 -212.825)"/><path class="l" d="M575.287,214.046h.455v.834h-.455v-.834Z" transform="translate(-573.65 -208.749)"/><path class="l" d="M569.979,208.149h.456v.834h-.456v-.834Z" transform="translate(-569.979 -204.671)"/><path class="l" d="M569.979,214.047h.456v.834h-.456v-.834Z" transform="translate(-569.979 -208.75)"/><path class="l" d="M569.979,225.9h.456v.834h-.456V225.9Z" transform="translate(-569.979 -216.944)"/><path class="l" d="M569.979,231.791h.456v.834h-.456v-.834Z" transform="translate(-569.979 -221.02)"/><path class="l" d="M569.979,220h.456v.834h-.456V220Z" transform="translate(-569.979 -212.868)"/><path class="l" d="M575.287,202.77h.455v.834h-.455v-.834Z" transform="translate(-573.65 -200.951)"/><path class="l" d="M575.287,196.872h.455v.834h-.455v-.834Z" transform="translate(-573.65 -196.872)"/><path class="l" d="M575.287,254.507h.455v.834h-.455v-.834Z" transform="translate(-573.65 -236.729)"/><path class="l" d="M575.287,260.4h.455v.834h-.455V260.4Z" transform="translate(-573.65 -240.805)"/><path class="l" d="M575.287,248.609h.455v.834h-.455v-.834Z" transform="translate(-573.65 -232.65)"/></g><g transform="translate(132.989 43.886)"><path class="l" d="M498.633,245.325h.455v.834h-.455v-.834Z" transform="translate(-496.995 -235.108)"/><path class="l" d="M493.325,239.429h.456v.834h-.456v-.834Z" transform="translate(-493.325 -231.03)"/><path class="l" d="M493.325,263.071h.456v.834h-.456v-.834Z" transform="translate(-493.325 -247.379)"/><path class="l" d="M493.325,251.282h.456v.834h-.456v-.834Z" transform="translate(-493.325 -239.227)"/><path class="l" d="M498.633,234.05h.455v.834h-.455v-.834Z" transform="translate(-496.995 -227.31)"/><path class="l" d="M498.633,228.152h.455v.834h-.455v-.834Z" transform="translate(-496.995 -223.232)"/><path class="l" d="M498.633,212.2h.455v.834h-.455V212.2Z" transform="translate(-496.995 -212.2)"/></g><g transform="translate(24.929 69.091)"><path class="l" d="M143,344.014h.9v-.724H143v.724Z" transform="translate(-142.999 -328.059)"/><path class="l" d="M143,339.523h.9V338.8H143v.725Z" transform="translate(-142.999 -324.952)"/><path class="l" d="M143,330.54h.9v-.724H143v.724Z" transform="translate(-142.999 -318.741)"/><path class="l" d="M150.555,348.505h.9v-.725h-.9v.725Z" transform="translate(-148.224 -331.164)"/><path class="l" d="M150.555,335.031h.9v-.725h-.9v.725Z" transform="translate(-148.224 -321.846)"/><path class="l" d="M143,326.05h.9v-.724H143v.724Z" transform="translate(-142.999 -315.635)"/><path class="l" d="M150.531,326.05h.9v-.724h-.9v.724Z" transform="translate(-148.208 -315.635)"/><path class="l" d="M150.531,321.561h.9v-.723h-.9v.723Z" transform="translate(-148.208 -312.532)"/><path class="l" d="M143,312.6h.9v-.723H143v.723Z" transform="translate(-142.999 -306.335)"/><path class="l" d="M143,303.618h.9v-.725H143v.725Z" transform="translate(-142.999 -300.122)"/><path class="l" d="M150.555,308.11h.9v-.725h-.9v.725Z" transform="translate(-148.224 -303.229)"/><path class="l" d="M143,299.127h.9V298.4H143v.724Z" transform="translate(-142.999 -297.017)"/><path class="l" d="M150.531,294.636h.9v-.725h-.9v.725Z" transform="translate(-148.208 -293.911)"/></g><g transform="translate(18.235 73.456)"><path class="l" d="M121.3,323.906h1V323.1h-1v.808Z" transform="translate(-121.298 -318.461)"/><path class="l" d="M121.3,318.9h1v-.808h-1v.808Z" transform="translate(-121.298 -314.996)"/><path class="l" d="M121.3,308.872h1v-.808h-1v.808Z" transform="translate(-121.298 -308.063)"/><path class="l" d="M129.7,318.9h1v-.808h-1v.808Z" transform="translate(-127.109 -314.996)"/><path class="l" d="M129.7,313.883h1v-.808h-1v.808Z" transform="translate(-127.109 -311.53)"/></g><g transform="translate(139.011 14.287)"><g transform="translate(0 0)"><path class="l" d="M512.846,116.239h1.026v1.875h-1.026v-1.875Z" transform="translate(-512.846 -116.239)"/><path class="l" d="M512.846,156h1.026v1.875h-1.026V156Z" transform="translate(-512.846 -143.738)"/><path class="l" d="M512.846,129.5h1.026v1.873h-1.026V129.5Z" transform="translate(-512.846 -125.408)"/><path class="l" d="M512.846,169.26h1.026v1.873h-1.026V169.26Z" transform="translate(-512.846 -152.905)"/><path class="l" d="M512.846,209.021h1.026V210.9h-1.026v-1.874Z" transform="translate(-512.846 -180.402)"/><path class="l" d="M512.846,195.768h1.026v1.874h-1.026v-1.874Z" transform="translate(-512.846 -171.237)"/><path class="l" d="M523.674,142.75H524.7v1.873h-1.023V142.75Z" transform="translate(-520.334 -134.572)"/><path class="l" d="M523.674,156H524.7v1.875h-1.023V156Z" transform="translate(-520.334 -143.738)"/><path class="l" d="M523.674,129.5H524.7v1.873h-1.023V129.5Z" transform="translate(-520.334 -125.408)"/><path class="l" d="M523.674,182.513H524.7v1.874h-1.023v-1.874Z" transform="translate(-520.334 -162.071)"/><path class="l" d="M523.674,195.768H524.7v1.874h-1.023v-1.874Z" transform="translate(-520.334 -171.237)"/><path class="l" d="M535.044,116.239h1.025v1.875h-1.025v-1.875Z" transform="translate(-528.197 -116.239)"/><path class="l" d="M535.044,142.75h1.025v1.873h-1.025V142.75Z" transform="translate(-528.197 -134.572)"/><path class="l" d="M535.044,156h1.025v1.875h-1.025V156Z" transform="translate(-528.197 -143.738)"/><path class="l" d="M535.044,129.5h1.025v1.873h-1.025V129.5Z" transform="translate(-528.197 -125.408)"/><path class="l" d="M535.044,209.021h1.025V210.9h-1.025v-1.874Z" transform="translate(-528.197 -180.402)"/><path class="l" d="M535.044,222.276h1.025v1.874h-1.025v-1.874Z" transform="translate(-528.197 -189.569)"/><path class="l" d="M535.044,195.768h1.025v1.874h-1.025v-1.874Z" transform="translate(-528.197 -171.237)"/><path class="l" d="M512.846,235.215h1.026v1.874h-1.026v-1.874Z" transform="translate(-512.846 -198.516)"/><path class="l" d="M512.846,248.466h1.026v1.874h-1.026v-1.874Z" transform="translate(-512.846 -207.68)"/><path class="l" d="M523.674,235.215H524.7v1.874h-1.023v-1.874Z" transform="translate(-520.334 -198.516)"/><path class="l" d="M523.674,261.723H524.7V263.6h-1.023v-1.874Z" transform="translate(-520.334 -216.848)"/><path class="l" d="M535.044,235.215h1.025v1.874h-1.025v-1.874Z" transform="translate(-528.197 -198.516)"/></g><path class="l" d="M512.846,278.446h1.026v1.875h-1.026v-1.875Z" transform="translate(-512.846 -228.412)"/><path class="l" d="M512.846,318.209h1.026v1.875h-1.026v-1.875Z" transform="translate(-512.846 -255.91)"/><path class="l" d="M512.846,291.7h1.026v1.872h-1.026V291.7Z" transform="translate(-512.846 -237.581)"/><path class="l" d="M512.846,331.466h1.026v1.873h-1.026v-1.873Z" transform="translate(-512.846 -265.078)"/><path class="l" d="M523.674,304.956H524.7v1.874h-1.023v-1.874Z" transform="translate(-520.334 -246.745)"/><path class="l" d="M523.674,291.7H524.7v1.872h-1.023V291.7Z" transform="translate(-520.334 -237.581)"/><path class="l" d="M535.044,278.446h1.025v1.875h-1.025v-1.875Z" transform="translate(-528.197 -228.412)"/><path class="l" d="M535.044,318.209h1.025v1.875h-1.025v-1.875Z" transform="translate(-528.197 -255.91)"/><path class="l" d="M535.044,291.7h1.025v1.872h-1.025V291.7Z" transform="translate(-528.197 -237.581)"/></g><g transform="translate(252.102 82.259)"><path class="k" d="M879.482,336.6h.341v.724h-.341V336.6Z" transform="translate(-879.482 -336.602)"/><path class="k" d="M879.482,341.084h.341v.724h-.341v-.724Z" transform="translate(-879.482 -339.702)"/><path class="k" d="M882.8,341.084h.34v.724h-.34v-.724Z" transform="translate(-881.774 -339.702)"/><path class="k" d="M879.482,351.421h.341v.724h-.341v-.724Z" transform="translate(-879.482 -346.85)"/></g><g transform="translate(114.706 33.593)"><path class="l" d="M434.079,188.409h.626v1.33h-.626v-1.33Z" transform="translate(-434.071 -185.455)"/><path class="l" d="M434.079,196.658h.626v1.331h-.626v-1.331Z" transform="translate(-434.071 -191.159)"/><path class="l" d="M434.079,213.159h.626v1.33h-.626v-1.33Z" transform="translate(-434.071 -202.57)"/><path class="l" d="M440.172,196.658h.626v1.331h-.626v-1.331Z" transform="translate(-438.284 -191.159)"/><path class="l" d="M440.172,204.909h.626v1.331h-.626v-1.331Z" transform="translate(-438.284 -196.865)"/><path class="l" d="M440.172,221.405h.626v1.332h-.626v-1.332Z" transform="translate(-438.284 -208.273)"/><path class="l" d="M434.052,233.318h.668v1.222h-.668v-1.222Z" transform="translate(-434.052 -216.511)"/><path class="l" d="M461.839,188.409h.626v1.33h-.626v-1.33Z" transform="translate(-453.268 -185.455)"/><path class="l" d="M467.932,178.831h.626v1.331h-.626v-1.331Z" transform="translate(-457.481 -178.831)"/><path class="l" d="M467.932,196.658h.626v1.331h-.626v-1.331Z" transform="translate(-457.481 -191.159)"/><path class="l" d="M461.812,223.009h.668v1.221h-.668v-1.221Z" transform="translate(-453.25 -209.382)"/><path class="l" d="M461.812,205.085h.668v1.222h-.668v-1.222Z" transform="translate(-453.25 -196.987)"/><path class="l" d="M461.839,239.949h.668v1.222h-.668v-1.222Z" transform="translate(-453.268 -221.097)"/><path class="l" d="M454.594,188.409h.626v1.33h-.626v-1.33Z" transform="translate(-448.258 -185.455)"/><path class="l" d="M454.594,196.658h.626v1.331h-.626v-1.331Z" transform="translate(-448.258 -191.159)"/><path class="l" d="M454.594,212.394h.626v1.331h-.626v-1.331Z" transform="translate(-448.258 -202.041)"/><path class="l" d="M454.568,232.555h.668v1.222h-.668v-1.222Z" transform="translate(-448.24 -215.984)"/><path class="l" d="M448.4,179.009h.668v1.222H448.4v-1.222Z" transform="translate(-443.972 -178.954)"/><path class="l" d="M448.611,263.829h.626v1.331h-.626v-1.331Z" transform="translate(-444.12 -237.611)"/><path class="l" d="M454.7,254.253h.626v1.331H454.7v-1.331Z" transform="translate(-448.334 -230.988)"/><path class="l" d="M454.7,272.08h.626v1.331H454.7V272.08Z" transform="translate(-448.334 -243.317)"/><path class="l" d="M441.366,263.829h.626v1.331h-.626v-1.331Z" transform="translate(-439.11 -237.611)"/><path class="l" d="M441.366,272.08h.626v1.331h-.626V272.08Z" transform="translate(-439.11 -243.317)"/></g><g transform="translate(41.416 48.634)"><path class="l" d="M196.448,227.593h1.137v.916h-1.137v-.916Z" transform="translate(-196.448 -227.593)"/><path class="l" d="M196.448,233.272h1.137v.917h-1.137v-.917Z" transform="translate(-196.448 -231.52)"/><path class="l" d="M196.448,244.637h1.137v.916h-1.137v-.916Z" transform="translate(-196.448 -239.38)"/><path class="l" d="M196.448,250.32h1.137v.916h-1.137v-.916Z" transform="translate(-196.448 -243.31)"/><path class="l" d="M207.507,233.272h1.137v.917h-1.137v-.917Z" transform="translate(-204.096 -231.52)"/><path class="l" d="M207.507,238.954h1.137v.917h-1.137v-.917Z" transform="translate(-204.096 -235.45)"/><path class="l" d="M207.507,250.32h1.137v.916h-1.137v-.916Z" transform="translate(-204.096 -243.31)"/><path class="l" d="M218.6,227.593h1.137v.916H218.6v-.916Z" transform="translate(-211.764 -227.593)"/><path class="l" d="M218.6,244.637h1.137v.916H218.6v-.916Z" transform="translate(-211.764 -239.38)"/><path class="l" d="M218.6,250.32h1.137v.916H218.6v-.916Z" transform="translate(-211.764 -243.31)"/><path class="l" d="M230.152,233.272h1.136v.917h-1.136v-.917Z" transform="translate(-219.756 -231.52)"/><path class="l" d="M230.152,238.954h1.136v.917h-1.136v-.917Z" transform="translate(-219.756 -235.45)"/><path class="l" d="M230.152,250.32h1.136v.916h-1.136v-.916Z" transform="translate(-219.756 -243.31)"/><path class="l" d="M207.507,256h1.137v.916h-1.137V256Z" transform="translate(-204.096 -247.238)"/><path class="l" d="M207.507,267.361h1.137v.918h-1.137v-.918Z" transform="translate(-204.096 -255.094)"/><path class="l" d="M207.507,273.044h1.137v.918h-1.137v-.918Z" transform="translate(-204.096 -259.025)"/><path class="l" d="M218.568,256H219.7v.916h-1.136V256Z" transform="translate(-211.745 -247.238)"/><path class="l" d="M218.568,261.682H219.7v.917h-1.136v-.917Z" transform="translate(-211.745 -251.167)"/><path class="l" d="M218.568,273.044H219.7v.918h-1.136v-.918Z" transform="translate(-211.745 -259.025)"/><path class="l" d="M229.656,250.32h1.136v.916h-1.136v-.916Z" transform="translate(-219.413 -243.31)"/><path class="l" d="M229.656,267.361h1.136v.918h-1.136v-.918Z" transform="translate(-219.413 -255.094)"/><path class="l" d="M229.656,273.044h1.136v.918h-1.136v-.918Z" transform="translate(-219.413 -259.025)"/><path class="l" d="M241.209,256h1.138v.916h-1.138V256Z" transform="translate(-227.403 -247.238)"/><path class="l" d="M241.209,261.682h1.138v.917h-1.138v-.917Z" transform="translate(-227.403 -251.167)"/><path class="l" d="M241.209,273.044h1.138v.918h-1.138v-.918Z" transform="translate(-227.403 -259.025)"/><path class="l" d="M229.656,256h1.136v.916h-1.136V256Z" transform="translate(-219.413 -247.238)"/><path class="l" d="M196.448,319.416h1.137V318.5h-1.137v.916Z" transform="translate(-196.448 -290.459)"/><path class="l" d="M196.448,313.734h1.137v-.917h-1.137v.917Z" transform="translate(-196.448 -286.529)"/><path class="l" d="M196.448,302.372h1.137v-.917h-1.137v.917Z" transform="translate(-196.448 -278.672)"/><path class="l" d="M196.448,296.688h1.137v-.918h-1.137v.918Z" transform="translate(-196.448 -274.741)"/><path class="l" d="M207.507,313.734h1.137v-.917h-1.137v.917Z" transform="translate(-204.096 -286.529)"/><path class="l" d="M207.507,308.051h1.137v-.917h-1.137v.917Z" transform="translate(-204.096 -282.599)"/><path class="l" d="M207.507,296.688h1.137v-.918h-1.137v.918Z" transform="translate(-204.096 -274.741)"/><path class="l" d="M218.6,319.416h1.137V318.5H218.6v.916Z" transform="translate(-211.764 -290.459)"/><path class="l" d="M218.6,302.372h1.137v-.917H218.6v.917Z" transform="translate(-211.764 -278.672)"/><path class="l" d="M230.152,313.734h1.136v-.917h-1.136v.917Z" transform="translate(-219.756 -286.529)"/><path class="l" d="M230.152,308.051h1.136v-.917h-1.136v.917Z" transform="translate(-219.756 -282.599)"/><path class="l" d="M230.152,296.688h1.136v-.918h-1.136v.918Z" transform="translate(-219.756 -274.741)"/><path class="l" d="M207.507,291.008h1.137v-.916h-1.137v.916Z" transform="translate(-204.096 -270.813)"/><path class="l" d="M207.507,279.643h1.137v-.916h-1.137v.916Z" transform="translate(-204.096 -262.955)"/><path class="l" d="M218.568,291.008H219.7v-.916h-1.136v.916Z" transform="translate(-211.745 -270.813)"/><path class="l" d="M218.568,285.326H219.7v-.916h-1.136v.916Z" transform="translate(-211.745 -266.885)"/><path class="l" d="M229.656,296.688h1.136v-.918h-1.136v.918Z" transform="translate(-219.413 -274.741)"/><path class="l" d="M229.656,279.643h1.136v-.916h-1.136v.916Z" transform="translate(-219.413 -262.955)"/><path class="l" d="M241.209,291.008h1.138v-.916h-1.138v.916Z" transform="translate(-227.403 -270.813)"/><path class="l" d="M241.209,285.326h1.138v-.916h-1.138v.916Z" transform="translate(-227.403 -266.885)"/><path class="l" d="M229.656,291.008h1.136v-.916h-1.136v.916Z" transform="translate(-219.413 -270.813)"/><path class="l" d="M196.448,273.044h1.137v.918h-1.137v-.918Z" transform="translate(-196.448 -259.025)"/><path class="l" d="M230.152,318.5h1.136v.916h-1.136V318.5Z" transform="translate(-219.756 -290.459)"/><path class="l" d="M230.152,329.863h1.136v.916h-1.136v-.916Z" transform="translate(-219.756 -298.317)"/><path class="l" d="M229.656,329.863h1.136v.917h-1.136v-.917Z" transform="translate(-219.413 -298.317)"/><path class="l" d="M229.656,346.908h1.136v.916h-1.136v-.916Z" transform="translate(-219.413 -310.104)"/><path class="l" d="M229.656,335.544h1.136v.916h-1.136v-.916Z" transform="translate(-219.413 -302.246)"/><path class="l" d="M218.568,346.908H219.7v.916h-1.136v-.916Z" transform="translate(-211.745 -310.104)"/><path class="l" d="M218.568,359.187H219.7v-.917h-1.136v.917Z" transform="translate(-211.745 -317.962)"/></g><g transform="translate(80.291 18.416)"><path class="l" d="M341.664,220.917H340.8v-1.585h.867v1.585Z" transform="translate(-335.147 -191.661)"/><path class="l" d="M341.664,198.494H340.8v-1.585h.867v1.585Z" transform="translate(-335.147 -176.155)"/><path class="l" d="M341.664,209.707H340.8v-1.585h.867v1.585Z" transform="translate(-335.147 -183.909)"/><path class="l" d="M341.664,176.067H340.8v-1.585h.867v1.585Z" transform="translate(-335.147 -160.646)"/><path class="l" d="M341.664,142.426H340.8v-1.585h.867v1.585Z" transform="translate(-335.147 -137.382)"/><path class="l" d="M341.664,153.64H340.8v-1.585h.867v1.585Z" transform="translate(-335.147 -145.136)"/><path class="l" d="M332.92,232.13h-.867v-1.585h.867v1.585Z" transform="translate(-329.1 -199.416)"/><path class="l" d="M332.92,187.28h-.867v-1.585h.867v1.585Z" transform="translate(-329.1 -168.4)"/><path class="l" d="M332.92,209.707h-.867v-1.585h.867v1.585Z" transform="translate(-329.1 -183.909)"/><path class="l" d="M332.92,176.067h-.867v-1.585h.867v1.585Z" transform="translate(-329.1 -160.646)"/><path class="l" d="M332.92,131.212h-.867v-1.585h.867v1.585Z" transform="translate(-329.1 -129.626)"/><path class="l" d="M323.346,232.13h-.867v-1.585h.867v1.585Z" transform="translate(-322.479 -199.416)"/><path class="l" d="M323.346,220.917h-.867v-1.585h.867v1.585Z" transform="translate(-322.479 -191.661)"/><path class="l" d="M323.346,187.28h-.867v-1.585h.867v1.585Z" transform="translate(-322.479 -168.4)"/><path class="l" d="M323.346,209.707h-.867v-1.585h.867v1.585Z" transform="translate(-322.479 -183.909)"/><path class="l" d="M323.346,176.067h-.867v-1.585h.867v1.585Z" transform="translate(-322.479 -160.646)"/><path class="l" d="M323.346,142.426h-.867v-1.585h.867v1.585Z" transform="translate(-322.479 -137.382)"/><path class="l" d="M323.346,153.64h-.867v-1.585h.867v1.585Z" transform="translate(-322.479 -145.136)"/></g><g transform="translate(90.602 17.311)"><path class="l" d="M382.091,175.057h-1.22v.984h1.22v-.984Z" transform="translate(-373.171 -159.939)"/><path class="l" d="M382.091,181.154h-1.22v.984h1.22v-.984Z" transform="translate(-373.171 -164.155)"/><path class="l" d="M382.091,193.348h-1.22v.984h1.22v-.984Z" transform="translate(-373.171 -172.587)"/><path class="l" d="M370.193,168.963h-1.219v.984h1.219v-.984Z" transform="translate(-364.944 -155.724)"/><path class="l" d="M370.193,187.252h-1.219v.983h1.219v-.983Z" transform="translate(-364.944 -168.371)"/><path class="l" d="M370.193,193.348h-1.219v.984h1.219v-.984Z" transform="translate(-364.944 -172.587)"/><path class="l" d="M357.13,168.961h-1.221v.984h1.221v-.984Z" transform="translate(-355.909 -155.722)"/><path class="l" d="M357.13,175.057h-1.221v.984h1.221v-.984Z" transform="translate(-355.909 -159.939)"/><path class="l" d="M357.13,187.252h-1.221v.983h1.221v-.983Z" transform="translate(-355.909 -168.371)"/><path class="l" d="M382.091,224.89h-1.22v-.984h1.22v.984Z" transform="translate(-373.171 -193.72)"/><path class="l" d="M382.091,218.793h-1.22v-.983h1.22v.983Z" transform="translate(-373.171 -189.504)"/><path class="l" d="M382.091,206.6h-1.22v-.984h1.22v.984Z" transform="translate(-373.171 -181.071)"/><path class="l" d="M370.193,230.987h-1.219V230h1.219v.984Z" transform="translate(-364.944 -197.936)"/><path class="l" d="M370.193,212.7h-1.219v-.984h1.219v.984Z" transform="translate(-364.944 -185.287)"/><path class="l" d="M357.13,200.5h-1.221v-.984h1.221v.984Z" transform="translate(-355.909 -176.856)"/><path class="l" d="M359.455,126.043h-1.219v.984h1.219v-.984Z" transform="translate(-357.518 -126.043)"/><path class="l" d="M359.455,132.142h-1.219v.983h1.219v-.983Z" transform="translate(-357.518 -130.261)"/><path class="l" d="M359.455,144.331h-1.219v.984h1.219v-.984Z" transform="translate(-357.518 -138.69)"/><path class="l" d="M357.126,267.618h1.22v-.984h-1.22v.984Z" transform="translate(-356.75 -223.268)"/><path class="l" d="M357.126,261.521h1.22v-.984h-1.22v.984Z" transform="translate(-356.75 -219.051)"/><path class="l" d="M357.126,249.329h1.22v-.984h-1.22v.984Z" transform="translate(-356.75 -210.62)"/><path class="l" d="M369.027,273.713h1.219v-.984h-1.219v.984Z" transform="translate(-364.981 -227.483)"/><path class="l" d="M369.027,255.426h1.219v-.983h-1.219v.983Z" transform="translate(-364.981 -214.837)"/><path class="l" d="M369.027,249.329h1.219v-.984h-1.219v.984Z" transform="translate(-364.981 -210.62)"/><path class="l" d="M382.085,273.714h1.221v-.984h-1.221v.984Z" transform="translate(-374.011 -227.483)"/><path class="l" d="M382.085,267.618h1.221v-.984h-1.221v.984Z" transform="translate(-374.011 -223.268)"/><path class="l" d="M382.085,255.426h1.221v-.983h-1.221v.983Z" transform="translate(-374.011 -214.837)"/><path class="l" d="M357.126,217.787h1.22v.983h-1.22v-.983Z" transform="translate(-356.75 -189.488)"/><path class="l" d="M357.126,223.884h1.22v.983h-1.22v-.983Z" transform="translate(-356.75 -193.704)"/><path class="l" d="M357.126,236.075h1.22v.984h-1.22v-.984Z" transform="translate(-356.75 -202.135)"/><path class="l" d="M382.085,242.173h1.221v.983h-1.221v-.983Z" transform="translate(-374.011 -206.352)"/><path class="l" d="M379.764,316.632h1.219v-.984h-1.219v.984Z" transform="translate(-372.406 -257.163)"/><path class="l" d="M379.764,310.536h1.219v-.983h-1.219v.983Z" transform="translate(-372.406 -252.949)"/><path class="l" d="M379.764,298.344h1.219v-.984h-1.219v.984Z" transform="translate(-372.406 -244.516)"/></g></g><path class="m" d="M522.185,35.636V391.991h4.307l5.384-361.31Z" transform="translate(-234.677 -98.606)"/><path class="m" d="M519.638,30.677,500.086,403.441h32.686V36.14Z" transform="translate(-251.511 -98.61)"/><path class="m" d="M574.094,44.688,569.786,406h-32.65s-2.5-380.692,0-372.077S574.094,44.688,574.094,44.688Z" transform="translate(-224.136 -96.247)"/><path class="m" d="M843.751,279.018c-5.653-3.922-16.47-7.757-22.175-11.118-11.513-5.6-14.941-14.978-30.071-18.646-8.418-1.913-16.608,2.99-22.417.75-.853-.077-14.3-12.651-16.7-14.573-4-3.2-14.453-10.969-19.462-12.567a49.672,49.672,0,0,0-17.4-2.909c-4.462-.113-8.009-2.75-11.834-2.149-6.545,1.781-4.438,11.115-7.169,13.187-11.485,1.9-33.727,21.639-55.684,11.645-19.443-3.5-22.891,9.23-40.4,12.7-5.751,1.12-7.658.181-9.649,0-2.625-.222-3.632-.181-11.109-1.954-6.765-1.193-19.272-2.119-22.681-2.437-15.287-1.984-6.608-2.877-22.573,2.437-8.937,3.7-17.579.967-25.561,3.624-13.3,4.429-31.127,11.272-50.136,12.339-18.955.506-34.521-7.734-53.911-11.8,2.85-12.193-53.411-26.475-69.862-25.17-8.333-12.1-54.665-40.749-77.5-35.5L233.059,402.451,827.2,457.463Z" transform="translate(-454.918 27.509)"/></g></g><path class="m" d="M21.592,27.961a.426.426,0,0,1-.074,0,1.183,1.183,0,0,1-.464-.243c-.109-.109-.089-.154-.088-.155a1.421,1.421,0,0,1,.265-.309,1.039,1.039,0,0,0,.241-.294l.024-.037a1.116,1.116,0,0,0,.066-.485,2.361,2.361,0,0,1,.148-1.215c.05-.163.1-.331.139-.507a2.26,2.26,0,0,0-.038-.812c-.018-.11-.035-.214-.046-.314-.042-.406-.077-.82-.11-1.22l0-.06c-.02-.24-.063-.483-.105-.717-.017-.1-.035-.2-.051-.3a23.639,23.639,0,0,0-.815-3.333v5.761c0,.151.022.7.044.839.014.084-.05.621-.1,1.053-.03.252-.053.451-.053.492a4.249,4.249,0,0,1-.155.839.919.919,0,0,0-.046.386c0,.022,0,.04,0,.055a1.178,1.178,0,0,1-.11.309l-.4.066-.486-.066a2.961,2.961,0,0,0-.322-.028.337.337,0,0,0-.075.006,3.049,3.049,0,0,1-.419.044l-.493-.011h0l-.5-.011c-.066,0-.59-.087-.6-.088a1.767,1.767,0,0,1-.464-.2.225.225,0,0,1-.088-.22.1.1,0,0,1,.067-.11.26.26,0,0,0,.066-.046,1.687,1.687,0,0,1,.485-.082,1.94,1.94,0,0,0,.354-.05,1.47,1.47,0,0,1,.174-.07.762.762,0,0,0,.3-.16,3.2,3.2,0,0,0,.346-.419c.063-.086.128-.174.2-.256a1.153,1.153,0,0,0,.221-.6.9.9,0,0,1,.062-.233.567.567,0,0,0,.049-.209,1.834,1.834,0,0,0-.065-.414v0a.984.984,0,0,1,.066-.4,4.619,4.619,0,0,0-.265-1.126,1.122,1.122,0,0,1-.056-.3c0-.041-.008-.08-.013-.116-.163-1.171-.263-2.233-.307-3.247v0c-.043-.292-.42-2.853-.441-3.02a6.371,6.371,0,0,1-.022-.949,4.186,4.186,0,0,0-.013-.533,2.415,2.415,0,0,1-.009-.372c.007-.049.018-.2.033-.388a10.771,10.771,0,0,1,.122-1.157c.065-.219.132-1.532.132-1.545l.177-1.258-.6.486s-.443.222-.574.309a3.594,3.594,0,0,1-.706.2l-1.192.2-.154-.132-.552.066-.2-.088-.154-.066-.133.044-.154.155h0c-.037.016-.162.068-.219.087a.179.179,0,0,1-.054.006,1.5,1.5,0,0,1-.161-.014,1.5,1.5,0,0,0-.16-.014.54.54,0,0,1-.331-.177.722.722,0,0,0-.1-.1.5.5,0,0,1-.123-.141c-.022-.065-.306-.132-.309-.132l-.4.508-1.192-.64L9,9.771,7.945,9.108a3.83,3.83,0,0,0-.066.464c0,.069-.012.435-.024.79v0c-.011.325-.021.633-.021.685,0,.106.106,1.464.11,1.522l.066,2.3-.088.088-.022.662-.132,2.075c0,.021-.243,2.076-.265,2.163-.011.046-.04.357-.069.659s-.053.568-.064.621-.033.233-.055.4-.045.357-.056.412c-.021.107-.022,1.18-.022,1.3,0,.033-.005.306-.011.57v.006c-.005.265-.011.539-.011.572a5.271,5.271,0,0,1-.2.795c-.044.066-.219.307-.221.309s.066.243.088.309.509.659.53.684l.287.221s.53.066.662.066.176.246.176.331a.442.442,0,0,1-.088.287.24.24,0,0,1-.158.035,2.145,2.145,0,0,1-.328-.035,3.186,3.186,0,0,0-.367-.011,3.658,3.658,0,0,1-.383-.011c-.152-.022-.493-.043-.508-.044l-.905.11-.794-.066c-.005,0-.532-.155-.662-.176a.434.434,0,0,0-.069,0,4.11,4.11,0,0,0-.547.067l-.024,0a.366.366,0,0,1-.054,0,6.955,6.955,0,0,1-1.227-.158.749.749,0,0,0-.239-.031c-.156-.006-.332-.012-.4-.123a.324.324,0,0,1-.029-.306.929.929,0,0,0,.029-.135.656.656,0,0,1,.092-.277c.012-.022.026-.047.04-.076a1.4,1.4,0,0,0,.09-.353c.008-.045.014-.085.021-.111a8.322,8.322,0,0,1-.111-1.037,4.994,4.994,0,0,1,.243-.949,1.94,1.94,0,0,0,.155-.728c0-.088.009-.2.018-.319a2.209,2.209,0,0,0,0-.541c-.044-.176-.11-1.029-.11-1.038l-2.008-.2L0,20.761l.574-4.789,2.185.155a1.36,1.36,0,0,0,.088-.309c0-.086-.021-.406-.022-.419l-.154-.2v-.005c-.015-.206-.086-1.237-.066-1.3a7.571,7.571,0,0,0,.088-1.17c0-.058-.011-.145-.017-.246A9.279,9.279,0,0,0,2.56,11.36c-.031-.112-.08-.258-.124-.386a2.161,2.161,0,0,1-.1-.32c0-.033.017-.207.033-.375s.033-.343.033-.376a1.707,1.707,0,0,0-.023-.24c-.006-.04-.012-.082-.016-.122-.027-.253-.065-.509-.1-.757-.022-.15-.045-.3-.065-.455-.008-.059-.022-.118-.035-.174a1.48,1.48,0,0,1-.038-.2,1.974,1.974,0,0,1,.042-.5,1.906,1.906,0,0,0,.04-.525,2.86,2.86,0,0,1,.11-.861,3.433,3.433,0,0,1,.453-.655c.061-.077.113-.142.143-.184.055-.078.273-.289.483-.494a5.591,5.591,0,0,0,.444-.455,1.548,1.548,0,0,1,.195-.217,1.2,1.2,0,0,0,.18-.2A1.024,1.024,0,0,1,4.5,3.5a.189.189,0,0,0,.094-.11.062.062,0,0,0-.006-.044s-.067-.244-.11-.375c-.034-.1-.134-.758-.187-1.11-.016-.107-.028-.184-.033-.214A1.529,1.529,0,0,1,4.784.519L4.855.435A1,1,0,0,1,5.094.247,1.718,1.718,0,0,0,5.3.1.326.326,0,0,1,5.518.033a1.2,1.2,0,0,1,.233.031c.035.007.068.014.1.018L5.981.1a6.921,6.921,0,0,1,.706.114c.032.011.087.026.151.044a2.241,2.241,0,0,1,.6.221A1.547,1.547,0,0,1,7.791.9c.065.131-.13.286-.132.287s-.178.089-.243.132-.049.2-.046.288c0,.018,0,.032,0,.043,0,.033.011.14.022.243s.022.21.022.243c0,.065.106.638.11.662l-.11.132-.177.089-.066.132L7.15,3.3l-.044.11.044.177.044.221-.089.11h0a1.773,1.773,0,0,1-.249.028A.2.2,0,0,1,6.8,3.944a.088.088,0,0,0-.027,0,1.046,1.046,0,0,0-.26.07l-.331.11s.068.226.11.353.322.221.552.287a2.3,2.3,0,0,1,.365.171c.078.041.145.077.187.094a1.6,1.6,0,0,1,.441.375,4.2,4.2,0,0,1,.419,1.082c0,.079.2.3.336.452.052.058.093.1.105.122.042.063.849.852.971.949a7.489,7.489,0,0,0,1.1.751l1.766.927a2.139,2.139,0,0,0,.265-.044.948.948,0,0,1,.1-.022.846.846,0,0,0,.294-.088.726.726,0,0,1,.353-.111c.092,0,.2.023.221.088a.649.649,0,0,0,.331.2.911.911,0,0,1,.105.013,1.5,1.5,0,0,0,.212.024.153.153,0,0,0,.081-.015c.029-.019.352-.106.725-.206.465-.124.991-.265,1.041-.3a.709.709,0,0,1,.159-.082A.476.476,0,0,0,16.641,9a.676.676,0,0,0,.1-.279.806.806,0,0,1,.079-.247,4.79,4.79,0,0,0,.525-1.791c.014-.1.023-.2.033-.293a1.924,1.924,0,0,1,.1-.546c.056-.127.322-.291.747-.462h0c.109-.043.9-.459.905-.464a1.269,1.269,0,0,0,.4-.4c.019-.042.036-.076.052-.106a.31.31,0,0,0,.014-.335l-.007-.017c-.067-.168-.067-.168-.164-.2l-.072-.025a1.174,1.174,0,0,0-.2-.057,1.615,1.615,0,0,1-.2-.053.758.758,0,0,0-.162-.042.1.1,0,0,1-.058-.025.356.356,0,0,1-.091-.177.841.841,0,0,0-.041-.11.348.348,0,0,1-.025-.193c0-.018,0-.035,0-.05A.485.485,0,0,0,18.561,3V2.774c0-.065-.218-.241-.221-.243s.066-.132.088-.2a.983.983,0,0,1,.066-.132.968.968,0,0,0,.067-.133l0,0a1.145,1.145,0,0,0,.065-.26A.924.924,0,0,0,18.6,1.66a.926.926,0,0,1-.022-.144.738.738,0,0,1,.043-.17,1.578,1.578,0,0,0,.046-.16l.008-.038A1.049,1.049,0,0,0,18.715.81c-.015-.045.039-.147.091-.246.025-.048.049-.093.063-.128a.475.475,0,0,1,.166-.18.791.791,0,0,0,.076-.063A1.241,1.241,0,0,1,19.729.04l.122-.012a3.208,3.208,0,0,1,.4-.028A1.708,1.708,0,0,1,20.8.082a2.2,2.2,0,0,1,.892.551A1.829,1.829,0,0,1,21.959,2a1.59,1.59,0,0,1-.2.507c-.042.052-.088.1-.137.159a1.192,1.192,0,0,0-.393.724.193.193,0,0,1-.044.132h0c.04.028.134.1.152.153A2.1,2.1,0,0,0,21.6,4l.1.116a3.267,3.267,0,0,0,.861.53,16.955,16.955,0,0,1,1.677.773c.088.07.087.3.087.449,0,.035,0,.065,0,.088.013.279.026.512.049.748q.01.107.021.215a6.727,6.727,0,0,1,.041,1.391,1.61,1.61,0,0,0,.038.449c.011.064.023.129.031.192a2.673,2.673,0,0,1-.019.606,3.676,3.676,0,0,0-.029.447c.005.327.043.656.079.975V11l.013.117a16.61,16.61,0,0,1,.019,2.584v0c-.008.18-.016.366-.023.55l-.221.111a.516.516,0,0,0,.022.243.926.926,0,0,0,.057.094.491.491,0,0,1,.076.149.261.261,0,0,1-.088.243,1.394,1.394,0,0,0-.155.22l.044.2.066.375,1.015-.066.949.221.243,4.7-2.781.376.022,1.147-.022,1.744c0,.025-.243,2.473-.287,2.56s-.182.345-.2.375a1.02,1.02,0,0,0-.022.4.543.543,0,0,1,0,.375c-.029.058-.126.078-.219.1a.841.841,0,0,0-.134.035,2.132,2.132,0,0,1-.537.093.31.31,0,0,1-.059,0,.431.431,0,0,0-.076,0c-.08,0-.2.008-.322.016S21.672,27.961,21.592,27.961ZM4.259,25.882s-.132.2-.11.287.175.176.177.177a.341.341,0,0,0,.022-.2.822.822,0,0,0-.05-.157.813.813,0,0,1-.038-.108Zm19.069-10.13.11.287.684-.067-.044-.265-.088.11h-.155l-.177.066-.176-.044-.155-.088Z" transform="translate(112.883 256.177)"/><path class="m" d="M1.347,27.413c-.125,0-.2-.019-.232-.056a1.563,1.563,0,0,1-.254-.46.215.215,0,0,0,0-.061.415.415,0,0,1,.076-.279,1.168,1.168,0,0,1,.508-.375,1.175,1.175,0,0,0,.343-.241A1.871,1.871,0,0,1,2,25.773a2.111,2.111,0,0,0,.619-.511l.074-.117a1.919,1.919,0,0,0,.259-.478c0-.078.3-4.167.364-4.986v-.018L3.433,15.2H3.424a3.058,3.058,0,0,1-.436-.1,1.161,1.161,0,0,0-.344-.1l-.021,0a.732.732,0,0,1-.089.013.6.6,0,0,0-.277.072c-.042.036-.085.077-.13.121h0c-.039.038-.079.077-.123.117a.037.037,0,0,1-.025.011.055.055,0,0,1-.04-.026.83.83,0,0,1-.094-.461c.01-.037.048-.252.1-.55v0c.119-.673.3-1.691.375-1.914.109-.315.521-2.192.555-2.451.032-.237.048-1.367.048-1.379a2.091,2.091,0,0,0-.331-.054.166.166,0,0,0-.034,0c-.032.007-.206.074-.409.151-.3.115-.671.257-.718.257-.023,0-.095.008-.185.019-.166.019-.392.046-.524.046a.206.206,0,0,1-.1-.014c-.017-.014-.055-.04-.1-.073A1.8,1.8,0,0,1,.163,8.6a.763.763,0,0,0-.044-.065A.434.434,0,0,1,0,8.207c.011-.061.021-.151.031-.246a2.994,2.994,0,0,1,.08-.5c.066-.214.621-1.4.667-1.447a7.612,7.612,0,0,0,.46-.8c.032-.077.091-.208.148-.335s.113-.252.137-.311a4.291,4.291,0,0,1,.27-.494.45.45,0,0,1,.267-.139l.019,0c.06.016.234.078.254.085l.143-.153s.175-.018.206-.085c.013-.028.043-.131.078-.251a4.587,4.587,0,0,1,.144-.447c.022-.048.049-.119.076-.194a1.11,1.11,0,0,1,.146-.317,1.1,1.1,0,0,1,.4-.136c.079,0,.238-.051.254-.1a.241.241,0,0,1,.127-.154.568.568,0,0,0,.067-.025.3.3,0,0,1,.1-.03.064.064,0,0,1,.022,0,.121.121,0,0,0,.039.007.05.05,0,0,0,.043-.019c.017-.023.016-.065,0-.125a3.864,3.864,0,0,1-.048-.834A1.518,1.518,0,0,1,4.464.548,1.667,1.667,0,0,1,5.1.088,2.251,2.251,0,0,1,5.659,0c.031,0,.062,0,.091,0,.047,0,.1.006.156.008a1.018,1.018,0,0,1,.558.111,1.044,1.044,0,0,0,.18.123.983.983,0,0,1,.328.268,1.249,1.249,0,0,1,.27.6c0,.046.01.107.016.172a3.892,3.892,0,0,1,.031.73,3.879,3.879,0,0,1-.19.681c-.018.05-.041.1-.064.155a1.4,1.4,0,0,0-.126.389c-.016.17-.016.423-.016.545a.4.4,0,0,0,.059.2.681.681,0,0,1,.036.077.359.359,0,0,0,.081.113.484.484,0,0,1,.093.125c.038.081,1.381.868,1.954,1.2l.268.158a1.478,1.478,0,0,1,.3.443c.044.109.793,2.77.81,2.876.008.051.058.206.112.37s.11.335.126.413c0,.008.157.767.174.919.011.1,0,.5-.01.77,0,.105-.006.188-.006.217a5.437,5.437,0,0,1-.239,1.038c-.077.133-.487.976-.539,1.089a4.644,4.644,0,0,1-.524.681.567.567,0,0,1-.2.126.269.269,0,0,0-.056.027c-.047.034-.158,1.585-.159,1.6-.012.083-1.206,8.426-1.222,8.544a.7.7,0,0,1-.11.271v0l-.018.027a.381.381,0,0,0-.093.279,6.363,6.363,0,0,1,.017.789c0,.046,0,.079,0,.1a1.077,1.077,0,0,1-.079.443c-.015.023-.034.057-.056.1a1.219,1.219,0,0,1-.245.347,1.409,1.409,0,0,0-.153.095,1.025,1.025,0,0,1-.291.161c-.023,0-.07.006-.124.013a2.341,2.341,0,0,1-.263.023.186.186,0,0,1-.1-.019.964.964,0,0,0-.12-.071.7.7,0,0,1-.2-.133A.561.561,0,0,1,6,26.795a3.065,3.065,0,0,0,0-.328,2.706,2.706,0,0,1,0-.455c.01-.072.025-.15.041-.233a2.941,2.941,0,0,0,.07-.533c0-.253,0-.357-.1-.476a5.409,5.409,0,0,1-.158-1.345,10.44,10.44,0,0,1,.27-1.123c.1-.318.317-4.947.317-4.987a2.833,2.833,0,0,0-.206-.528A1.775,1.775,0,0,0,6.1,17.3c0,.109-.343,2.117-.619,3.729-.2,1.172-.374,2.184-.38,2.262s-.054.311-.1.549a6.076,6.076,0,0,0-.118.643,1.573,1.573,0,0,1-.037.251,1.411,1.411,0,0,0-.043.43,2.6,2.6,0,0,1-.005.474,3.035,3.035,0,0,0-.011.36.694.694,0,0,1-.127.477,1.4,1.4,0,0,1-.555.238c-.141.017-.426.017-.428.017l-.143-.17a7.09,7.09,0,0,0-.778.459,4.8,4.8,0,0,1-1.079.375c-.012,0-.04,0-.071.006C1.535,27.4,1.438,27.413,1.347,27.413ZM4.54,3.524c-.04,0-.072,0-.075,0a.824.824,0,0,1-.159.119.588.588,0,0,0-.191.119,1.6,1.6,0,0,0-.127.221c-.038.073-.074.141-.1.171a1.05,1.05,0,0,1-.19.17,2.306,2.306,0,0,0-.286.153c-.063.05-.048.186-.047.187l.111.153s.179.011.388.011h.007a1.919,1.919,0,0,0,.669-.079.774.774,0,0,0,.247-.19.856.856,0,0,1,.1-.1c.127-.1.127-.1.127-.187a.224.224,0,0,0-.079-.187.345.345,0,0,1-.073-.139.922.922,0,0,0-.038-.1.983.983,0,0,1-.049-.14.411.411,0,0,0-.062-.149A.3.3,0,0,0,4.54,3.524Z" transform="translate(144.292 256.697)"/><path class="m" d="M5.866,26.461c-.093,0-.679-.088-.685-.089v0a1.445,1.445,0,0,1-.092-.4l.008-.046a.892.892,0,0,0,.023-.339c-.017-.048-.065-.26-.112-.465-.039-.17-.076-.331-.09-.379-.03-.1.028-3.187.062-3.3.018-.06.057-.269.091-.454.026-.141.051-.274.064-.33a4.375,4.375,0,0,0,.031-.77c-.017-.1-.14-3.438-.14-3.464a3.34,3.34,0,0,0-.077-.533c-.031-.073-.17-1.115-.171-1.125,0,.007-.049.219-.116.513-.148.65-.4,1.739-.428,1.871-.046.191-.654,1.971-.7,2.073s-1.062,3.142-1.1,3.271l0,.009c-.158.394-.946,2.363-.961,2.4a.718.718,0,0,1-.033.066.909.909,0,0,0-.123.319.275.275,0,0,0,.062.151.681.681,0,0,1,.11.249c.015.072.03.125.043.172a.677.677,0,0,1,.034.287c-.016.2-.047.281-.2.3-.028,0-.063,0-.1,0A2.218,2.218,0,0,1,.762,26.4c-.076-.029-.494-.323-.5-.326a.226.226,0,0,1-.155-.059A.935.935,0,0,1,0,25.706c0-.066.031-1.569.062-1.658s.125-.594.14-.726.416-2.624.42-2.649.125-1.083.171-1.2.3-.933.311-1.006c0-.02.014-.078.027-.15v0c.034-.193.09-.517.112-.571s.082-.322.135-.563v0h0c.026-.118.051-.229.067-.293.046-.187.479-3.046.5-3.168l-.187-.1.14-1.244s-.312-.489-.358-.548c-.018-.023-.094-.216-.181-.439a5.662,5.662,0,0,0-.348-.8A1.39,1.39,0,0,1,.762,10.1C.747,10.016.577,8.68.575,8.667A11.551,11.551,0,0,1,.731,7.453,1.9,1.9,0,0,0,.8,7.2a1.546,1.546,0,0,1,.131-.4,6.794,6.794,0,0,0,.451-.873c.048-.167.469-1.129.529-1.244.025-.048.069-.152.116-.261a3.5,3.5,0,0,1,.18-.39,1.337,1.337,0,0,1,.28-.3,2.928,2.928,0,0,1,.436-.118c.006,0,.546-.089.638-.089a4.079,4.079,0,0,0,.591-.119l.079-.024a1.516,1.516,0,0,0,.341-.124A.447.447,0,0,0,4.652,3.1L4.637,2.76,4.668,2.6l.015-.178-.078-.148v0c.007-.066.033-.285.046-.336a.473.473,0,0,1,.025-.064.279.279,0,0,0,.037-.158A1.091,1.091,0,0,1,4.7,1.6a.763.763,0,0,0-.016-.112.559.559,0,0,1,.078-.3A.656.656,0,0,1,4.849,1.1c.078-.074.166-.158.146-.218A.37.37,0,0,0,4.963.818a.229.229,0,0,1,0-.278A.97.97,0,0,1,5.43.11,2.8,2.8,0,0,1,6.143,0,1.088,1.088,0,0,1,6.27.007l.045.005A1.265,1.265,0,0,1,6.97.2a.9.9,0,0,0,.19.126.6.6,0,0,1,.293.259,1.721,1.721,0,0,1,.2.74c0,.03,0,.059-.005.086a1.389,1.389,0,0,1-.088.506c-.027.061-.048.12-.068.176a.967.967,0,0,1-.134.282,2.085,2.085,0,0,0-.218.34.809.809,0,0,1-.063.1A.284.284,0,0,0,7,3.027a.742.742,0,0,1-.017.213A.5.5,0,0,0,6.97,3.4a.478.478,0,0,0,.2.3c.121.086.825.557.855.577.008,0,.825.3.856.43a5.39,5.39,0,0,1,.078.785c-.016.059.077,4.163.078,4.2v0c0,.128-.078,3.124-.093,3.21,0,.025-.01.1-.017.2v0a2.684,2.684,0,0,1-.091.682,1.24,1.24,0,0,1-.156.089h0l0,.006a2.609,2.609,0,0,1,.092.423,1.03,1.03,0,0,0,.023.167.814.814,0,0,1,.024.232.6.6,0,0,0-.006.083.219.219,0,0,1-.056.169.573.573,0,0,1-.1.085.4.4,0,0,0-.12.122.168.168,0,0,0,.016.193l1.073.015-.047,4.619-.053.016c-1.043.314-1.632.487-1.658.487-.046,0-.569-.128-.591-.133a.144.144,0,0,1,0,.015,4.227,4.227,0,0,1,.105.769,7.391,7.391,0,0,0-.124.889c-.006.093-.041.527-.081,1.03v.007c-.061.764-.137,1.714-.137,1.777a1.671,1.671,0,0,0,.14.444,3.867,3.867,0,0,0,.633.313h0l.158.071a1.511,1.511,0,0,0,.142.056.626.626,0,0,1,.216.107.34.34,0,0,0,.078.052.135.135,0,0,1,.093.14.314.314,0,0,0,.022.11c.017.05.028.08-.053.127a1.3,1.3,0,0,1-.358.163c-.071.017-.557.025-1.008.025-.325,0-.564,0-.595-.01A.809.809,0,0,1,6.4,26.4a.763.763,0,0,0-.225-.067.086.086,0,0,0-.03,0,.718.718,0,0,0-.088.045A.439.439,0,0,1,5.866,26.461ZM2.318,8.253c0,.027-.032.257-.047.341-.008.042-.022.107-.037.176s-.033.148-.041.194l-.005.029v0a.357.357,0,0,0,.006.205c.009.031.016.062.023.1A.74.74,0,0,0,2.3,9.54a.433.433,0,0,0,.218.178s0-.15-.006-.32c0-.242-.01-.542-.01-.568,0-.043-.075-.385-.078-.4Z" transform="translate(98.394 253.545)"/></g></g><text class="n" transform="translate(15 41.614)"><tspan x="0" y="0">Work And Money</tspan></text><text class="o" transform="translate(15 28.614)"><tspan x="0" y="0">Career</tspan></text><path class="m" d="M693.628,253.686a4.907,4.907,0,0,1-.2.541.516.516,0,0,0-.066.356,1.822,1.822,0,0,0,.105.369,1.959,1.959,0,0,1,.185.462,1.866,1.866,0,0,1-.053.621c-.053.317-.106.8-.158,1.109a2.24,2.24,0,0,0-.053.805c.053.159.026.185.145.251s.277-.013.317-.013-.093,1.571-.093,1.571a15.1,15.1,0,0,0,.075,3.171,3.027,3.027,0,0,1,.043.367l.08,2.046s.04,1.307.013,1.386-.039,2.112-.065,2.178a.555.555,0,0,0-.079.251.4.4,0,0,0,.066.251.377.377,0,0,1,.04.277.971.971,0,0,1-.132.343c-.053.106-.37.462-.422.541s-.211.224-.224.37-.066.211.026.3.4.066.462.079a2.7,2.7,0,0,0,.713-.132c.066-.053.41-.238.462-.29s.211-.211.251-.264a.552.552,0,0,1,.2-.145c.066-.026.2-.092.251-.119s.066-.251.066-.251.013-.225.027-.3a.857.857,0,0,1,.132-.277.974.974,0,0,0,.106-.317,1.335,1.335,0,0,0-.039-.449,1.477,1.477,0,0,1-.146-.33c-.013-.092-.013-2.271-.013-2.271.042-.223.1-.448.119-.673s-.016-.471-.01-.707a2.885,2.885,0,0,1,.137-.652,4.714,4.714,0,0,0,.083-.549q.06-.459.12-.918l.066-.607.066-.911a.251.251,0,0,1,.052.106c0,.04.066.9.08.964s.132.634.145.726a7.359,7.359,0,0,0,.365,1.026,4.842,4.842,0,0,1,.057,1.245l.053,2.786-.145.29a1.253,1.253,0,0,0-.172.383,1.444,1.444,0,0,0,.026.343.709.709,0,0,0,.172.291.435.435,0,0,1,.145.264c.013.105.053.449.053.449a.817.817,0,0,1,.238.106,1.168,1.168,0,0,0,.238.145c.053.026.092-.027.132.053a.773.773,0,0,0,.185.225,2.376,2.376,0,0,0,.449.224,2.1,2.1,0,0,0,.383.066,1.229,1.229,0,0,0,.317-.027.992.992,0,0,0,.264-.145.668.668,0,0,0,.092-.2,1.41,1.41,0,0,0-.052-.224,2.28,2.28,0,0,0-.172-.237s-.541-.5-.567-.541a.976.976,0,0,1-.014-.277c0-.04.145-1.043.145-1.043l-.105-2.244s-.079-1.254-.079-1.333.211-1.254.211-1.254.172-1.518.185-1.584.145-.792.145-.9.039-2.006.039-2.006.608-.066.647-.066.528-.145.528-.145a3.938,3.938,0,0,1,.515.092c.092.039,1.558.092,1.558.092l-.977-3.8c-.176-.658-.362-1.315-.527-1.976-.039-.157-.218-.531-.146-.679s.366-.253.513-.34a2.548,2.548,0,0,0,.632-.461,2.772,2.772,0,0,0,.5-.567,2.348,2.348,0,0,1,.189-.365c.177-.239.419-.438.61-.669.425-.516.846-1.037,1.265-1.558l.647-.66-.079-.211-.079-.172s-.079-.106-.04-.185.344-.5.409-.581.211-.277.238-.317a1.713,1.713,0,0,0,.092-.409.386.386,0,0,0-.092-.251c-.053-.039-.185-.119-.211-.171s-.053-.2-.079-.238-.132-.119-.185-.105-.04-.132-.185-.092a.587.587,0,0,0-.3.159c-.053.066-.2.171-.212.237s-.026,1.017-.026,1.017a.389.389,0,0,1-.079.145.48.48,0,0,0-.225.37l-.713.647-.687.805a4.043,4.043,0,0,1-.834.8,3.786,3.786,0,0,0-.632.4c-.275.273-.412.62-.832.62a1.967,1.967,0,0,0-.132-.211c-.053-.066-.158-.158-.224-.146l-.383.08s-.541.264-.581.3a1.6,1.6,0,0,1-.211.211.247.247,0,0,1-.211-.053l-.145-.145v-.251s.079-.172.119-.238a1.878,1.878,0,0,0,.33-.871,5.077,5.077,0,0,0,0-.7,1.073,1.073,0,0,0-.919-.944c-.172-.01-.7.051-.77.262-.014.039-.225.3-.251.343s-.172.145-.172.185a2.769,2.769,0,0,0-.026.343,2.6,2.6,0,0,1-.079.462,2.812,2.812,0,0,0,.092.436,1.989,1.989,0,0,0,.079.264,2.881,2.881,0,0,1,.066.33,1.632,1.632,0,0,1,.026.264.365.365,0,0,1-.066.159.435.435,0,0,1-.185.053c-.093,0-1.611-.7-1.611-.7a.3.3,0,0,0-.158.106c-.053.079-.092.264-.145.264s-.172-.119-.2-.185a2.075,2.075,0,0,0-.33-.343c-.039-.027-.58-.475-.58-.475s-.066-.159-.027-.172.422-.092.422-.092l-.977-3.776-.212-.079-1.135.211-.079-.185s-.145-.079-.159-.119a2.471,2.471,0,0,0-.172-.211.274.274,0,0,0-.172-.106.543.543,0,0,0-.264.027.434.434,0,0,1-.132.079.182.182,0,0,0-.132.105c-.013.053-.066.145-.106.132s-.105-.026-.132.027-.092.092-.092.145v.238l-.185.145s-.158.119-.172.158a.715.715,0,0,1-.093.132l-1.624.581s-.013.713-.013.766a.327.327,0,0,0,.04.237,1.4,1.4,0,0,1,.145.29l.3,1.941.224.04.291.4.053.132,2.8-.739.172.013a1.384,1.384,0,0,0-.013.277c.013.092.515.621.515.687a3.217,3.217,0,0,0,.066.343s1.267,1,1.307,1.03.093.211.093.211Z" transform="translate(-488.058 -172.024)"/><g transform="translate(203.187 57)"><path class="m" d="M2.813.1,1.681,2.73H.549A2.659,2.659,0,0,0,0,2.782L.47,1.655l.019-.042.028-.075a.745.745,0,0,1,.038-.085C1.1.19,1.709-.2,2.813.1Z" transform="translate(2.794 0.942)"/><path class="m" d="M3.808,2.616l-.009,0a3.14,3.14,0,0,0-.859-.122H0L1.057.033,1.071,0c.066.023.136.056.207.08L2.315.517a3.107,3.107,0,0,1,1.23.789c.042.056.08.108.117.169a.715.715,0,0,1,.094.2A.628.628,0,0,1,3.8,1.8,1.646,1.646,0,0,1,3.808,2.616Z" transform="translate(4.987 1.183)"/><path class="m" d="M0,.625H.117A.272.272,0,0,0,.376.343C.376.146.319.117.2.07L0,0Z" transform="translate(5.879 7.668)"/><path class="m" d="M7.537.094A2.375,2.375,0,0,0,6.875,0H2.292a2.243,2.243,0,0,0-.9.183A2.3,2.3,0,0,0,0,2.292v.916a2.652,2.652,0,0,0,.023.333,2.307,2.307,0,0,0,2.395,2.39,2.533,2.533,0,0,0,.333.023H6.414c1.737,0,2.653-.826,2.742-2.47,0-.089.009-.183.009-.277V2.292A2.3,2.3,0,0,0,7.537.094ZM5.184,2.9a.694.694,0,0,1,.507.733.757.757,0,0,1-.747.77H4.827v.1a.244.244,0,1,1-.488,0V4.4H4.3a.838.838,0,0,1-.822-.85.244.244,0,1,1,.488,0,.351.351,0,0,0,.333.362h.042V3.123L3.982,3a.694.694,0,0,1-.507-.733.757.757,0,0,1,.747-.77h.117v-.1a.244.244,0,1,1,.488,0v.1H4.87a.838.838,0,0,1,.822.85.244.244,0,1,1-.488,0,.351.351,0,0,0-.333-.362H4.827v.794Z" transform="translate(1.052 4.377)"/><path class="m" d="M0,.282c0,.2.056.225.178.272l.2.07V0H.258A.269.269,0,0,0,0,.282Z" transform="translate(5.015 6.358)"/><path class="p" d="M0,0H11.27V11.27H0Z"/></g><g transform="translate(190.909 62.601)"><path class="m" d="M4.379,2.086A2.674,2.674,0,0,1,2.085,4.381a2.635,2.635,0,0,1-1.9-.488.443.443,0,0,1,.129-.785,4.209,4.209,0,0,0,2.8-2.8A.446.446,0,0,1,3.9.183,2.671,2.671,0,0,1,4.379,2.086Z" transform="translate(5.347 5.346)"/><path class="m" d="M3.545,0A3.545,3.545,0,1,0,7.091,3.545,3.547,3.547,0,0,0,3.545,0ZM3.128,3.049,4.2,3.421a.8.8,0,0,1,.572.825.865.865,0,0,1-.848.874h-.04v.022a.333.333,0,1,1-.666,0V5.116a.939.939,0,0,1-.887-.95.333.333,0,1,1,.666,0,.274.274,0,0,0,.257.288h.666A.2.2,0,0,0,4.1,4.247c0-.155-.027-.164-.129-.2L2.9,3.674a.793.793,0,0,1-.572-.825.865.865,0,0,1,.848-.874h.04V1.957a.333.333,0,1,1,.666,0v.027a.939.939,0,0,1,.887.95.333.333,0,1,1-.666,0,.274.274,0,0,0-.257-.288H3.182A.2.2,0,0,0,3,2.853C3,3,3.022,3.013,3.128,3.049Z" transform="translate(0.887 0.887)"/><path class="p" d="M0,0H10.65V10.65H0Z"/></g><g transform="translate(187.574 76.019)"><path class="m" d="M0,.936H.213A.409.409,0,0,0,.6.516C.6.23.5.174.335.115L0,0V.936Z" transform="translate(4.187 4.292)"/><path class="m" d="M3.274,0A3.284,3.284,0,1,0,6.567,3.274,3.285,3.285,0,0,0,3.274,0Zm.752,3.316a.822.822,0,0,1,.6.867.9.9,0,0,1-.883.913H3.53v.19a.246.246,0,1,1-.493,0V5.1H2.919a.994.994,0,0,1-.975-1.011.246.246,0,1,1,.493,0,.5.5,0,0,0,.483.519h.118V3.494l-.5-.177a.822.822,0,0,1-.6-.867.9.9,0,0,1,.883-.913h.213v-.19a.246.246,0,1,1,.493,0v.19h.118a.994.994,0,0,1,.975,1.011.246.246,0,1,1-.493,0,.5.5,0,0,0-.483-.519H3.53v1.11Z" transform="translate(0.657 0.624)"/><path class="m" d="M0,.424c0,.286.1.341.269.4L.6.939V0H.387A.408.408,0,0,0,0,.424Z" transform="translate(3.093 2.653)"/><path class="p" d="M0,0H7.881V7.881H0Z"/></g><g transform="translate(222.187 77.355)"><path class="m" d="M0,.936H.213A.409.409,0,0,0,.6.516C.6.23.5.174.335.115L0,0V.936Z" transform="translate(4.187 4.292)"/><path class="m" d="M3.274,0A3.284,3.284,0,1,0,6.567,3.274,3.285,3.285,0,0,0,3.274,0Zm.752,3.316a.822.822,0,0,1,.6.867.9.9,0,0,1-.883.913H3.53v.19a.246.246,0,1,1-.493,0V5.1H2.919a.994.994,0,0,1-.975-1.011.246.246,0,1,1,.493,0,.5.5,0,0,0,.483.519h.118V3.494l-.5-.177a.822.822,0,0,1-.6-.867.9.9,0,0,1,.883-.913h.213v-.19a.246.246,0,1,1,.493,0v.19h.118a.994.994,0,0,1,.975,1.011.246.246,0,1,1-.493,0,.5.5,0,0,0-.483-.519H3.53v1.11Z" transform="translate(0.657 0.624)"/><path class="m" d="M0,.424c0,.286.1.341.269.4L.6.939V0H.387A.408.408,0,0,0,0,.424Z" transform="translate(3.093 2.653)"/><path class="p" d="M0,0H7.881V7.881H0Z"/></g><g transform="translate(217.463 62.635)"><g transform="translate(0 0)"><path class="m" d="M.661,0V1.032L.3.906C.112.841,0,.78,0,.466A.448.448,0,0,1,.426,0Z" transform="translate(3.401 2.917)"/><path class="m" d="M.661.567a.448.448,0,0,1-.426.466H0V0L.365.126C.549.191.661.253.661.567Z" transform="translate(4.603 4.715)"/><path class="m" d="M5.123,0H2.1A1.927,1.927,0,0,0,0,2.1V5.123a1.927,1.927,0,0,0,2.1,2.1H5.123a1.927,1.927,0,0,0,2.1-2.1V2.1A1.927,1.927,0,0,0,5.123,0Zm-.7,3.61a.9.9,0,0,1,.657.949.988.988,0,0,1-.967,1.007H3.881v.209a.271.271,0,1,1-.541,0V5.567h-.13A1.1,1.1,0,0,1,2.137,4.451a.271.271,0,1,1,.541,0,.554.554,0,0,0,.531.574h.13V3.8L2.794,3.61a.9.9,0,0,1-.657-.949A.988.988,0,0,1,3.1,1.653h.235V1.444a.271.271,0,1,1,.541,0v.209h.13A1.1,1.1,0,0,1,5.083,2.769a.271.271,0,1,1-.541,0,.554.554,0,0,0-.531-.574h-.13V3.419Z" transform="translate(0.722 0.722)"/><path class="p" d="M0,0H8.664V8.664H0Z"/></g></g></svg>